<svg version="1.1" xmlns="http://www.w3.org/2000/svg" viewBox="0 0 759 105.5" width="1518" height="211">
  <!-- svg-source:excalidraw -->
  
  <defs>
    <style class="style-fonts">
      @font-face {
        font-family: "Virgil";
        src: url("https://excalidraw.com/Virgil.woff2");
      }
      @font-face {
        font-family: "Cascadia";
        src: url("https://excalidraw.com/Cascadia.woff2");
      }
      @font-face {
        font-family: "Assistant";
        src: url("https://excalidraw.com/Assistant-Regular.woff2");
      }
    </style>
    
  </defs>
  <rect x="0" y="0" width="759" height="105.5" fill="#ffffff"></rect><g stroke-linecap="round" transform="translate(10 10.5) rotate(0 134 42.5)"><path d="M21.25 0 C68.93 0, 116.61 0, 246.75 0 M21.25 0 C90.45 0, 159.64 0, 246.75 0 M246.75 0 C260.92 0, 268 7.08, 268 21.25 M246.75 0 C260.92 0, 268 7.08, 268 21.25 M268 21.25 C268 33.05, 268 44.85, 268 63.75 M268 21.25 C268 34.23, 268 47.21, 268 63.75 M268 63.75 C268 77.92, 260.92 85, 246.75 85 M268 63.75 C268 77.92, 260.92 85, 246.75 85 M246.75 85 C161.82 85, 76.89 85, 21.25 85 M246.75 85 C192.54 85, 138.33 85, 21.25 85 M21.25 85 C7.08 85, 0 77.92, 0 63.75 M21.25 85 C7.08 85, 0 77.92, 0 63.75 M0 63.75 C0 52.08, 0 40.4, 0 21.25 M0 63.75 C0 53.84, 0 43.93, 0 21.25 M0 21.25 C0 7.08, 7.08 0, 21.25 0 M0 21.25 C0 7.08, 7.08 0, 21.25 0" stroke="#1e1e1e" stroke-width="2" fill="none"></path></g><g transform="translate(26.8125 41) rotate(0 117.1875 12)"><text x="117.1875" y="19.3125" font-family="Cascadia, Segoe UI Emoji" font-size="20px" fill="#1e1e1e" text-anchor="middle" style="white-space: pre;" direction="ltr" dominant-baseline="alphabetic">Run GREL query suite</text></g><g stroke-linecap="round" transform="translate(481 10) rotate(0 134 42.5)"><path d="M21.25 0 C93.79 0, 166.34 0, 246.75 0 M21.25 0 C96.6 0, 171.95 0, 246.75 0 M246.75 0 C260.92 0, 268 7.08, 268 21.25 M246.75 0 C260.92 0, 268 7.08, 268 21.25 M268 21.25 C268 37.82, 268 54.39, 268 63.75 M268 21.25 C268 33.43, 268 45.62, 268 63.75 M268 63.75 C268 77.92, 260.92 85, 246.75 85 M268 63.75 C268 77.92, 260.92 85, 246.75 85 M246.75 85 C163.63 85, 80.52 85, 21.25 85 M246.75 85 C175.15 85, 103.54 85, 21.25 85 M21.25 85 C7.08 85, 0 77.92, 0 63.75 M21.25 85 C7.08 85, 0 77.92, 0 63.75 M0 63.75 C0 54.03, 0 44.31, 0 21.25 M0 63.75 C0 52.35, 0 40.95, 0 21.25 M0 21.25 C0 7.08, 7.08 0, 21.25 0 M0 21.25 C0 7.08, 7.08 0, 21.25 0" stroke="#1e1e1e" stroke-width="2" fill="none"></path></g><g transform="translate(491.953125 40.5) rotate(0 123.046875 12)"><text x="123.046875" y="19.3125" font-family="Cascadia, Segoe UI Emoji" font-size="20px" fill="#1e1e1e" text-anchor="middle" style="white-space: pre;" direction="ltr" dominant-baseline="alphabetic">Run GREL update suite</text></g><g stroke-linecap="round"><g transform="translate(292 49.5) rotate(0 87.5 0)"><path d="M0 0 C29.17 0, 145.83 0, 175 0 M0 0 C29.17 0, 145.83 0, 175 0" stroke="#1e1e1e" stroke-width="2" fill="none"></path></g><g transform="translate(292 49.5) rotate(0 87.5 0)"><path d="M151.51 8.55 C158.4 6.04, 165.29 3.53, 175 0 M151.51 8.55 C157.43 6.39, 163.35 4.24, 175 0" stroke="#1e1e1e" stroke-width="2" fill="none"></path></g><g transform="translate(292 49.5) rotate(0 87.5 0)"><path d="M151.51 -8.55 C158.4 -6.04, 165.29 -3.53, 175 0 M151.51 -8.55 C157.43 -6.39, 163.35 -4.24, 175 0" stroke="#1e1e1e" stroke-width="2" fill="none"></path></g></g><mask></mask></svg>