<svg version="1.1" xmlns="http://www.w3.org/2000/svg" viewBox="0 0 1126.5 105.5" width="2253" height="211">
  <!-- svg-source:excalidraw -->
  
  <defs>
    <style class="style-fonts">
      @font-face {
        font-family: "Virgil";
        src: url("https://excalidraw.com/Virgil.woff2");
      }
      @font-face {
        font-family: "Cascadia";
        src: url("https://excalidraw.com/Cascadia.woff2");
      }
      @font-face {
        font-family: "Assistant";
        src: url("https://excalidraw.com/Assistant-Regular.woff2");
      }
    </style>
    
  </defs>
  <rect x="0" y="0" width="1126.5" height="105.5" fill="#ffffff"></rect><g stroke-linecap="round" transform="translate(10 10) rotate(0 66.5 41)"><path d="M20.5 0 C55.94 0, 91.37 0, 112.5 0 M20.5 0 C49.1 0, 77.69 0, 112.5 0 M112.5 0 C126.17 0, 133 6.83, 133 20.5 M112.5 0 C126.17 0, 133 6.83, 133 20.5 M133 20.5 C133 33.77, 133 47.05, 133 61.5 M133 20.5 C133 35.69, 133 50.89, 133 61.5 M133 61.5 C133 75.17, 126.17 82, 112.5 82 M133 61.5 C133 75.17, 126.17 82, 112.5 82 M112.5 82 C76.85 82, 41.21 82, 20.5 82 M112.5 82 C83.87 82, 55.25 82, 20.5 82 M20.5 82 C6.83 82, 0 75.17, 0 61.5 M20.5 82 C6.83 82, 0 75.17, 0 61.5 M0 61.5 C0 48.53, 0 35.56, 0 20.5 M0 61.5 C0 46.22, 0 30.95, 0 20.5 M0 20.5 C0 6.83, 6.83 0, 20.5 0 M0 20.5 C0 6.83, 6.83 0, 20.5 0" stroke="#1e1e1e" stroke-width="2" fill="none"></path></g><g transform="translate(17.90625 15) rotate(0 58.59375 36)"><text x="58.59375" y="19.3125" font-family="Cascadia, Segoe UI Emoji" font-size="20px" fill="#1e1e1e" text-anchor="middle" style="white-space: pre;" direction="ltr" dominant-baseline="alphabetic">Load raw </text><text x="58.59375" y="43.3125" font-family="Cascadia, Segoe UI Emoji" font-size="20px" fill="#1e1e1e" text-anchor="middle" style="white-space: pre;" direction="ltr" dominant-baseline="alphabetic">CSVs into </text><text x="58.59375" y="67.3125" font-family="Cascadia, Segoe UI Emoji" font-size="20px" fill="#1e1e1e" text-anchor="middle" style="white-space: pre;" direction="ltr" dominant-baseline="alphabetic">memory</text></g><g stroke-linecap="round" transform="translate(266.5 16.5) rotate(0 197 39.5)"><path d="M19.75 0 C160.94 0, 302.13 0, 374.25 0 M19.75 0 C134.9 0, 250.06 0, 374.25 0 M374.25 0 C387.42 0, 394 6.58, 394 19.75 M374.25 0 C387.42 0, 394 6.58, 394 19.75 M394 19.75 C394 34.01, 394 48.27, 394 59.25 M394 19.75 C394 33.76, 394 47.77, 394 59.25 M394 59.25 C394 72.42, 387.42 79, 374.25 79 M394 59.25 C394 72.42, 387.42 79, 374.25 79 M374.25 79 C300.24 79, 226.23 79, 19.75 79 M374.25 79 C267.48 79, 160.71 79, 19.75 79 M19.75 79 C6.58 79, 0 72.42, 0 59.25 M19.75 79 C6.58 79, 0 72.42, 0 59.25 M0 59.25 C0 47.44, 0 35.63, 0 19.75 M0 59.25 C0 46.12, 0 33, 0 19.75 M0 19.75 C0 6.58, 6.58 0, 19.75 0 M0 19.75 C0 6.58, 6.58 0, 19.75 0" stroke="#1e1e1e" stroke-width="2" fill="none"></path></g><g transform="translate(276 32) rotate(0 187.5 24)"><text x="187.5" y="19.3125" font-family="Cascadia, Segoe UI Emoji" font-size="20px" fill="#1e1e1e" text-anchor="middle" style="white-space: pre;" direction="ltr" dominant-baseline="alphabetic">Convert memory representation to</text><text x="187.5" y="43.3125" font-family="Cascadia, Segoe UI Emoji" font-size="20px" fill="#1e1e1e" text-anchor="middle" style="white-space: pre;" direction="ltr" dominant-baseline="alphabetic">OpenRefine-API-compatible</text></g><g stroke-linecap="round" transform="translate(755.5 12.5) rotate(0 180.5 41)"><path d="M20.5 0 C142.47 0, 264.43 0, 340.5 0 M20.5 0 C102.01 0, 183.53 0, 340.5 0 M340.5 0 C354.17 0, 361 6.83, 361 20.5 M340.5 0 C354.17 0, 361 6.83, 361 20.5 M361 20.5 C361 33.55, 361 46.61, 361 61.5 M361 20.5 C361 31.17, 361 41.84, 361 61.5 M361 61.5 C361 75.17, 354.17 82, 340.5 82 M361 61.5 C361 75.17, 354.17 82, 340.5 82 M340.5 82 C255.54 82, 170.58 82, 20.5 82 M340.5 82 C247.89 82, 155.28 82, 20.5 82 M20.5 82 C6.83 82, 0 75.17, 0 61.5 M20.5 82 C6.83 82, 0 75.17, 0 61.5 M0 61.5 C0 51.74, 0 41.98, 0 20.5 M0 61.5 C0 47.27, 0 33.03, 0 20.5 M0 20.5 C0 6.83, 6.83 0, 20.5 0 M0 20.5 C0 6.83, 6.83 0, 20.5 0" stroke="#1e1e1e" stroke-width="2" fill="none"></path></g><g transform="translate(766.078125 17.5) rotate(0 169.921875 36)"><text x="169.921875" y="19.3125" font-family="Cascadia, Segoe UI Emoji" font-size="20px" fill="#1e1e1e" text-anchor="middle" style="white-space: pre;" direction="ltr" dominant-baseline="alphabetic">Send OpenRefine-API-</text><text x="169.921875" y="43.3125" font-family="Cascadia, Segoe UI Emoji" font-size="20px" fill="#1e1e1e" text-anchor="middle" style="white-space: pre;" direction="ltr" dominant-baseline="alphabetic">compatible representation to </text><text x="169.921875" y="67.3125" font-family="Cascadia, Segoe UI Emoji" font-size="20px" fill="#1e1e1e" text-anchor="middle" style="white-space: pre;" direction="ltr" dominant-baseline="alphabetic">OpenRefine server</text></g><g stroke-linecap="round"><g transform="translate(152 56.29466374854559) rotate(0 55 -0.0014475610170450182)"><path d="M0 0 C18.33 0, 91.67 0, 110 0 M0 0 C18.33 0, 91.67 0, 110 0" stroke="#1e1e1e" stroke-width="2" fill="none"></path></g><g transform="translate(152 56.29466374854559) rotate(0 55 -0.0014475610170450182)"><path d="M86.51 8.55 C94.04 5.81, 101.57 3.07, 110 0 M86.51 8.55 C94.11 5.78, 101.72 3.01, 110 0" stroke="#1e1e1e" stroke-width="2" fill="none"></path></g><g transform="translate(152 56.29466374854559) rotate(0 55 -0.0014475610170450182)"><path d="M86.51 -8.55 C94.04 -5.81, 101.57 -3.07, 110 0 M86.51 -8.55 C94.11 -5.78, 101.72 -3.02, 110 0" stroke="#1e1e1e" stroke-width="2" fill="none"></path></g></g><mask></mask><g stroke-linecap="round"><g transform="translate(672 51.74750378542279) rotate(0 37.5 -0.495757656363935)"><path d="M0 0 C12.5 -0.17, 62.5 -0.83, 75 -0.99 M0 0 C12.5 -0.17, 62.5 -0.83, 75 -0.99" stroke="#1e1e1e" stroke-width="2" fill="none"></path></g><g transform="translate(672 51.74750378542279) rotate(0 37.5 -0.495757656363935)"><path d="M51.62 7.87 C57.21 5.75, 62.8 3.63, 75 -0.99 M51.62 7.87 C57.83 5.52, 64.04 3.16, 75 -0.99" stroke="#1e1e1e" stroke-width="2" fill="none"></path></g><g transform="translate(672 51.74750378542279) rotate(0 37.5 -0.495757656363935)"><path d="M51.4 -9.23 C57.04 -7.26, 62.68 -5.29, 75 -0.99 M51.4 -9.23 C57.67 -7.04, 63.94 -4.85, 75 -0.99" stroke="#1e1e1e" stroke-width="2" fill="none"></path></g></g><mask></mask></svg>