<svg version="1.1" xmlns="http://www.w3.org/2000/svg" viewBox="0 0 1060.5000000000002 99" width="2121.0000000000005" height="198">
  <!-- svg-source:excalidraw -->
  
  <defs>
    <style class="style-fonts">
      @font-face {
        font-family: "Virgil";
        src: url("https://excalidraw.com/Virgil.woff2");
      }
      @font-face {
        font-family: "Cascadia";
        src: url("https://excalidraw.com/Cascadia.woff2");
      }
      @font-face {
        font-family: "Assistant";
        src: url("https://excalidraw.com/Assistant-Regular.woff2");
      }
    </style>
    
  </defs>
  <rect x="0" y="0" width="1060.5000000000002" height="99" fill="#ffffff"></rect><g stroke-linecap="round" transform="translate(10 15) rotate(0 140.5 37)"><path d="M18.5 0 C87.26 0, 156.03 0, 262.5 0 M18.5 0 C115.13 0, 211.76 0, 262.5 0 M262.5 0 C274.83 0, 281 6.17, 281 18.5 M262.5 0 C274.83 0, 281 6.17, 281 18.5 M281 18.5 C281 32.84, 281 47.18, 281 55.5 M281 18.5 C281 31.84, 281 45.17, 281 55.5 M281 55.5 C281 67.83, 274.83 74, 262.5 74 M281 55.5 C281 67.83, 274.83 74, 262.5 74 M262.5 74 C185.37 74, 108.24 74, 18.5 74 M262.5 74 C203.81 74, 145.12 74, 18.5 74 M18.5 74 C6.17 74, 0 67.83, 0 55.5 M18.5 74 C6.17 74, 0 67.83, 0 55.5 M0 55.5 C0 44.01, 0 32.53, 0 18.5 M0 55.5 C0 41.72, 0 27.95, 0 18.5 M0 18.5 C0 6.17, 6.17 0, 18.5 0 M0 18.5 C0 6.17, 6.17 0, 18.5 0" stroke="#1e1e1e" stroke-width="2" fill="none"></path></g><g transform="translate(45.03125 28) rotate(0 105.46875 24)"><text x="105.46875" y="19.3125" font-family="Cascadia, Segoe UI Emoji" font-size="20px" fill="#1e1e1e" text-anchor="middle" style="white-space: pre;" direction="ltr" dominant-baseline="alphabetic">Query all rows in </text><text x="105.46875" y="43.3125" font-family="Cascadia, Segoe UI Emoji" font-size="20px" fill="#1e1e1e" text-anchor="middle" style="white-space: pre;" direction="ltr" dominant-baseline="alphabetic">cleaned tables</text></g><g stroke-linecap="round" transform="translate(369.5 14) rotate(0 140.5 37)"><path d="M18.5 0 C80.97 0, 143.44 0, 262.5 0 M18.5 0 C94.51 0, 170.53 0, 262.5 0 M262.5 0 C274.83 0, 281 6.17, 281 18.5 M262.5 0 C274.83 0, 281 6.17, 281 18.5 M281 18.5 C281 32.94, 281 47.37, 281 55.5 M281 18.5 C281 28.18, 281 37.86, 281 55.5 M281 55.5 C281 67.83, 274.83 74, 262.5 74 M281 55.5 C281 67.83, 274.83 74, 262.5 74 M262.5 74 C193.52 74, 124.54 74, 18.5 74 M262.5 74 C169.91 74, 77.31 74, 18.5 74 M18.5 74 C6.17 74, 0 67.83, 0 55.5 M18.5 74 C6.17 74, 0 67.83, 0 55.5 M0 55.5 C0 41.42, 0 27.33, 0 18.5 M0 55.5 C0 41.99, 0 28.49, 0 18.5 M0 18.5 C0 6.17, 6.17 0, 18.5 0 M0 18.5 C0 6.17, 6.17 0, 18.5 0" stroke="#1e1e1e" stroke-width="2" fill="none"></path></g><g transform="translate(404.53125 27) rotate(0 105.46875 24)"><text x="105.46875" y="19.3125" font-family="Cascadia, Segoe UI Emoji" font-size="20px" fill="#1e1e1e" text-anchor="middle" style="white-space: pre;" direction="ltr" dominant-baseline="alphabetic">Read results into </text><text x="105.46875" y="43.3125" font-family="Cascadia, Segoe UI Emoji" font-size="20px" fill="#1e1e1e" text-anchor="middle" style="white-space: pre;" direction="ltr" dominant-baseline="alphabetic">Pandas DataFrames</text></g><g stroke-linecap="round" transform="translate(742.5 10) rotate(0 154.0000000000001 36)"><path d="M18 0 C105.33 0, 192.65 0, 290 0 M18 0 C72.53 0, 127.05 0, 290 0 M290 0 C302 0, 308 6, 308 18 M290 0 C302 0, 308 6, 308 18 M308 18 C308 31.73, 308 45.46, 308 54 M308 18 C308 29.73, 308 41.47, 308 54 M308 54 C308 66, 302 72, 290 72 M308 54 C308 66, 302 72, 290 72 M290 72 C226.83 72, 163.66 72, 18 72 M290 72 C189.52 72, 89.05 72, 18 72 M18 72 C6 72, 0 66, 0 54 M18 72 C6 72, 0 66, 0 54 M0 54 C0 42.41, 0 30.83, 0 18 M0 54 C0 40.17, 0 26.33, 0 18 M0 18 C0 6, 6 0, 18 0 M0 18 C0 6, 6 0, 18 0" stroke="#1e1e1e" stroke-width="2" fill="none"></path></g><g transform="translate(750.015625 22) rotate(0 146.484375 24)"><text x="146.484375" y="19.3125" font-family="Cascadia, Segoe UI Emoji" font-size="20px" fill="#1e1e1e" text-anchor="middle" style="white-space: pre;" direction="ltr" dominant-baseline="alphabetic">Export DataFrame contents</text><text x="146.484375" y="43.3125" font-family="Cascadia, Segoe UI Emoji" font-size="20px" fill="#1e1e1e" text-anchor="middle" style="white-space: pre;" direction="ltr" dominant-baseline="alphabetic">to new, "clean" CSVs</text></g><g stroke-linecap="round"><g transform="translate(300 48) rotate(0 28 0)"><path d="M0 0 C9.33 0, 46.67 0, 56 0 M0 0 C9.33 0, 46.67 0, 56 0" stroke="#1e1e1e" stroke-width="2" fill="none"></path></g><g transform="translate(300 48) rotate(0 28 0)"><path d="M32.51 8.55 C41.87 5.14, 51.22 1.74, 56 0 M32.51 8.55 C38.43 6.4, 44.34 4.24, 56 0" stroke="#1e1e1e" stroke-width="2" fill="none"></path></g><g transform="translate(300 48) rotate(0 28 0)"><path d="M32.51 -8.55 C41.87 -5.14, 51.22 -1.74, 56 0 M32.51 -8.55 C38.43 -6.4, 44.34 -4.24, 56 0" stroke="#1e1e1e" stroke-width="2" fill="none"></path></g></g><mask></mask><g stroke-linecap="round"><g transform="translate(663 45.63775128082628) rotate(0 37 -0.2893842368338966)"><path d="M0 0 C12.33 -0.1, 61.67 -0.48, 74 -0.58 M0 0 C12.33 -0.1, 61.67 -0.48, 74 -0.58" stroke="#1e1e1e" stroke-width="2" fill="none"></path></g><g transform="translate(663 45.63775128082628) rotate(0 37 -0.2893842368338966)"><path d="M50.58 8.16 C59.56 4.8, 68.55 1.45, 74 -0.58 M50.58 8.16 C58.3 5.28, 66.02 2.4, 74 -0.58" stroke="#1e1e1e" stroke-width="2" fill="none"></path></g><g transform="translate(663 45.63775128082628) rotate(0 37 -0.2893842368338966)"><path d="M50.44 -8.95 C59.48 -5.73, 68.52 -2.52, 74 -0.58 M50.44 -8.95 C58.21 -6.19, 65.97 -3.43, 74 -0.58" stroke="#1e1e1e" stroke-width="2" fill="none"></path></g></g><mask></mask></svg>