<svg version="1.1" xmlns="http://www.w3.org/2000/svg" viewBox="0 0 1032.5 102" width="2065" height="204">
  <!-- svg-source:excalidraw -->
  
  <defs>
    <style class="style-fonts">
      @font-face {
        font-family: "Virgil";
        src: url("https://excalidraw.com/Virgil.woff2");
      }
      @font-face {
        font-family: "Cascadia";
        src: url("https://excalidraw.com/Cascadia.woff2");
      }
      @font-face {
        font-family: "Assistant";
        src: url("https://excalidraw.com/Assistant-Regular.woff2");
      }
    </style>
    
  </defs>
  <rect x="0" y="0" width="1032.5" height="102" fill="#ffffff"></rect><g stroke-linecap="round" transform="translate(10 14) rotate(0 139.5 37)"><path d="M18.5 0 C114.12 0, 209.73 0, 260.5 0 M18.5 0 C113.4 0, 208.31 0, 260.5 0 M260.5 0 C272.83 0, 279 6.17, 279 18.5 M260.5 0 C272.83 0, 279 6.17, 279 18.5 M279 18.5 C279 29.02, 279 39.54, 279 55.5 M279 18.5 C279 30.48, 279 42.45, 279 55.5 M279 55.5 C279 67.83, 272.83 74, 260.5 74 M279 55.5 C279 67.83, 272.83 74, 260.5 74 M260.5 74 C175.57 74, 90.65 74, 18.5 74 M260.5 74 C201.41 74, 142.32 74, 18.5 74 M18.5 74 C6.17 74, 0 67.83, 0 55.5 M18.5 74 C6.17 74, 0 67.83, 0 55.5 M0 55.5 C0 47.16, 0 38.82, 0 18.5 M0 55.5 C0 41.05, 0 26.59, 0 18.5 M0 18.5 C0 6.17, 6.17 0, 18.5 0 M0 18.5 C0 6.17, 6.17 0, 18.5 0" stroke="#1e1e1e" stroke-width="1" fill="none"></path></g><g transform="translate(20.59375 27) rotate(0 128.90625 24)"><text x="128.90625" y="19.3125" font-family="Cascadia, Segoe UI Emoji" font-size="20px" fill="#1e1e1e" text-anchor="middle" style="white-space: pre;" direction="ltr" dominant-baseline="alphabetic">Create representative </text><text x="128.90625" y="43.3125" font-family="Cascadia, Segoe UI Emoji" font-size="20px" fill="#1e1e1e" text-anchor="middle" style="white-space: pre;" direction="ltr" dominant-baseline="alphabetic">tables in SQL</text></g><g stroke-linecap="round" transform="translate(366.5 13) rotate(0 139.5 37)"><path d="M18.5 0 C82.08 0, 145.67 0, 260.5 0 M18.5 0 C114.53 0, 210.55 0, 260.5 0 M260.5 0 C272.83 0, 279 6.17, 279 18.5 M260.5 0 C272.83 0, 279 6.17, 279 18.5 M279 18.5 C279 27.16, 279 35.81, 279 55.5 M279 18.5 C279 30.37, 279 42.25, 279 55.5 M279 55.5 C279 67.83, 272.83 74, 260.5 74 M279 55.5 C279 67.83, 272.83 74, 260.5 74 M260.5 74 C189.15 74, 117.79 74, 18.5 74 M260.5 74 C172.63 74, 84.76 74, 18.5 74 M18.5 74 C6.17 74, 0 67.83, 0 55.5 M18.5 74 C6.17 74, 0 67.83, 0 55.5 M0 55.5 C0 41.64, 0 27.77, 0 18.5 M0 55.5 C0 45.5, 0 35.51, 0 18.5 M0 18.5 C0 6.17, 6.17 0, 18.5 0 M0 18.5 C0 6.17, 6.17 0, 18.5 0" stroke="#1e1e1e" stroke-width="1" fill="none"></path></g><g transform="translate(382.953125 26) rotate(0 123.046875 24)"><text x="123.046875" y="19.3125" font-family="Cascadia, Segoe UI Emoji" font-size="20px" fill="#1e1e1e" text-anchor="middle" style="white-space: pre;" direction="ltr" dominant-baseline="alphabetic">Load CSVs into </text><text x="123.046875" y="43.3125" font-family="Cascadia, Segoe UI Emoji" font-size="20px" fill="#1e1e1e" text-anchor="middle" style="white-space: pre;" direction="ltr" dominant-baseline="alphabetic">representative tables</text></g><g stroke-linecap="round" transform="translate(743.5 10) rotate(0 139.5 41)"><path d="M20.5 0 C84.09 0, 147.67 0, 258.5 0 M20.5 0 C89.31 0, 158.12 0, 258.5 0 M258.5 0 C272.17 0, 279 6.83, 279 20.5 M258.5 0 C272.17 0, 279 6.83, 279 20.5 M279 20.5 C279 35.71, 279 50.93, 279 61.5 M279 20.5 C279 30.05, 279 39.61, 279 61.5 M279 61.5 C279 75.17, 272.17 82, 258.5 82 M279 61.5 C279 75.17, 272.17 82, 258.5 82 M258.5 82 C195.96 82, 133.42 82, 20.5 82 M258.5 82 C197.03 82, 135.56 82, 20.5 82 M20.5 82 C6.83 82, 0 75.17, 0 61.5 M20.5 82 C6.83 82, 0 75.17, 0 61.5 M0 61.5 C0 47.34, 0 33.18, 0 20.5 M0 61.5 C0 50.57, 0 39.63, 0 20.5 M0 20.5 C0 6.83, 6.83 0, 20.5 0 M0 20.5 C0 6.83, 6.83 0, 20.5 0" stroke="#1e1e1e" stroke-width="1" fill="none"></path></g><g transform="translate(771.671875 15) rotate(0 111.328125 36)"><text x="111.328125" y="19.3125" font-family="Cascadia, Segoe UI Emoji" font-size="20px" fill="#1e1e1e" text-anchor="middle" style="white-space: pre;" direction="ltr" dominant-baseline="alphabetic">Analyze tables for </text><text x="111.328125" y="43.3125" font-family="Cascadia, Segoe UI Emoji" font-size="20px" fill="#1e1e1e" text-anchor="middle" style="white-space: pre;" direction="ltr" dominant-baseline="alphabetic">obvious ICs and </text><text x="111.328125" y="67.3125" font-family="Cascadia, Segoe UI Emoji" font-size="20px" fill="#1e1e1e" text-anchor="middle" style="white-space: pre;" direction="ltr" dominant-baseline="alphabetic">violations</text></g><g stroke-linecap="round"><g transform="translate(298 47) rotate(0 30.5 0)"><path d="M0 0 C10.17 0, 50.83 0, 61 0 M0 0 C10.17 0, 50.83 0, 61 0" stroke="#1e1e1e" stroke-width="1" fill="none"></path></g><g transform="translate(298 47) rotate(0 30.5 0)"><path d="M37.51 8.55 C44.6 5.97, 51.68 3.39, 61 0 M37.51 8.55 C43.95 6.21, 50.39 3.86, 61 0" stroke="#1e1e1e" stroke-width="1" fill="none"></path></g><g transform="translate(298 47) rotate(0 30.5 0)"><path d="M37.51 -8.55 C44.6 -5.97, 51.68 -3.39, 61 0 M37.51 -8.55 C43.95 -6.21, 50.39 -3.86, 61 0" stroke="#1e1e1e" stroke-width="1" fill="none"></path></g></g><mask></mask><g stroke-linecap="round"><g transform="translate(655.5 58) rotate(0 37.25 0)"><path d="M0 0 C12.42 0, 62.08 0, 74.5 0 M0 0 C12.42 0, 62.08 0, 74.5 0" stroke="#1e1e1e" stroke-width="1" fill="none"></path></g><g transform="translate(655.5 58) rotate(0 37.25 0)"><path d="M51.01 8.55 C59.07 5.62, 67.13 2.68, 74.5 0 M51.01 8.55 C57.05 6.35, 63.1 4.15, 74.5 0" stroke="#1e1e1e" stroke-width="1" fill="none"></path></g><g transform="translate(655.5 58) rotate(0 37.25 0)"><path d="M51.01 -8.55 C59.07 -5.62, 67.13 -2.68, 74.5 0 M51.01 -8.55 C57.05 -6.35, 63.1 -4.15, 74.5 0" stroke="#1e1e1e" stroke-width="1" fill="none"></path></g></g><mask></mask></svg>