<svg version="1.1" xmlns="http://www.w3.org/2000/svg" viewBox="0 0 1183 98" width="2366" height="196">
  <!-- svg-source:excalidraw -->
  
  <defs>
    <style class="style-fonts">
      @font-face {
        font-family: "Virgil";
        src: url("https://excalidraw.com/Virgil.woff2");
      }
      @font-face {
        font-family: "Cascadia";
        src: url("https://excalidraw.com/Cascadia.woff2");
      }
      @font-face {
        font-family: "Assistant";
        src: url("https://excalidraw.com/Assistant-Regular.woff2");
      }
    </style>
    
  </defs>
  <rect x="0" y="0" width="1183" height="98" fill="#ffffff"></rect><g stroke-linecap="round" transform="translate(10 16) rotate(0 152.5 35.5)"><path d="M17.75 0 C87.84 0, 157.94 0, 287.25 0 M17.75 0 C123.69 0, 229.62 0, 287.25 0 M287.25 0 C299.08 0, 305 5.92, 305 17.75 M287.25 0 C299.08 0, 305 5.92, 305 17.75 M305 17.75 C305 29.43, 305 41.12, 305 53.25 M305 17.75 C305 28.4, 305 39.06, 305 53.25 M305 53.25 C305 65.08, 299.08 71, 287.25 71 M305 53.25 C305 65.08, 299.08 71, 287.25 71 M287.25 71 C228.71 71, 170.17 71, 17.75 71 M287.25 71 C217.53 71, 147.8 71, 17.75 71 M17.75 71 C5.92 71, 0 65.08, 0 53.25 M17.75 71 C5.92 71, 0 65.08, 0 53.25 M0 53.25 C0 40.77, 0 28.29, 0 17.75 M0 53.25 C0 43.28, 0 33.31, 0 17.75 M0 17.75 C0 5.92, 5.92 0, 17.75 0 M0 17.75 C0 5.92, 5.92 0, 17.75 0" stroke="#1e1e1e" stroke-width="2" fill="none"></path></g><g transform="translate(16.015625 27.5) rotate(0 146.484375 24)"><text x="146.484375" y="19.3125" font-family="Cascadia, Segoe UI Emoji" font-size="20px" fill="#1e1e1e" text-anchor="middle" style="white-space: pre;" direction="ltr" dominant-baseline="alphabetic">Export from OpenRefine to</text><text x="146.484375" y="43.3125" font-family="Cascadia, Segoe UI Emoji" font-size="20px" fill="#1e1e1e" text-anchor="middle" style="white-space: pre;" direction="ltr" dominant-baseline="alphabetic">memory</text></g><g stroke-linecap="round" transform="translate(429 16) rotate(0 157 36)"><path d="M18 0 C77.91 0, 137.81 0, 296 0 M18 0 C89.38 0, 160.75 0, 296 0 M296 0 C308 0, 314 6, 314 18 M296 0 C308 0, 314 6, 314 18 M314 18 C314 31.37, 314 44.75, 314 54 M314 18 C314 28.91, 314 39.82, 314 54 M314 54 C314 66, 308 72, 296 72 M314 54 C314 66, 308 72, 296 72 M296 72 C220.25 72, 144.5 72, 18 72 M296 72 C187.59 72, 79.18 72, 18 72 M18 72 C6 72, 0 66, 0 54 M18 72 C6 72, 0 66, 0 54 M0 54 C0 42.45, 0 30.91, 0 18 M0 54 C0 45.8, 0 37.6, 0 18 M0 18 C0 6, 6 0, 18 0 M0 18 C0 6, 6 0, 18 0" stroke="#1e1e1e" stroke-width="2" fill="none"></path></g><g transform="translate(457.09375 28) rotate(0 128.90625 24)"><text x="128.90625" y="19.3125" font-family="Cascadia, Segoe UI Emoji" font-size="20px" fill="#1e1e1e" text-anchor="middle" style="white-space: pre;" direction="ltr" dominant-baseline="alphabetic">Create representative </text><text x="128.90625" y="43.3125" font-family="Cascadia, Segoe UI Emoji" font-size="20px" fill="#1e1e1e" text-anchor="middle" style="white-space: pre;" direction="ltr" dominant-baseline="alphabetic">SQLite tables</text></g><g stroke-linecap="round" transform="translate(863 10) rotate(0 155 36)"><path d="M18 0 C108.39 0, 198.77 0, 292 0 M18 0 C83.86 0, 149.71 0, 292 0 M292 0 C304 0, 310 6, 310 18 M292 0 C304 0, 310 6, 310 18 M310 18 C310 30.71, 310 43.42, 310 54 M310 18 C310 28.92, 310 39.85, 310 54 M310 54 C310 66, 304 72, 292 72 M310 54 C310 66, 304 72, 292 72 M292 72 C188.47 72, 84.95 72, 18 72 M292 72 C216.62 72, 141.24 72, 18 72 M18 72 C6 72, 0 66, 0 54 M18 72 C6 72, 0 66, 0 54 M0 54 C0 44.56, 0 35.12, 0 18 M0 54 C0 46.22, 0 38.45, 0 18 M0 18 C0 6, 6 0, 18 0 M0 18 C0 6, 6 0, 18 0" stroke="#1e1e1e" stroke-width="2" fill="none"></path></g><g transform="translate(900.8125 22) rotate(0 117.1875 24)"><text x="117.1875" y="19.3125" font-family="Cascadia, Segoe UI Emoji" font-size="20px" fill="#1e1e1e" text-anchor="middle" style="white-space: pre;" direction="ltr" dominant-baseline="alphabetic">Load from memory to </text><text x="117.1875" y="43.3125" font-family="Cascadia, Segoe UI Emoji" font-size="20px" fill="#1e1e1e" text-anchor="middle" style="white-space: pre;" direction="ltr" dominant-baseline="alphabetic">SQLite tables</text></g><g stroke-linecap="round"><g transform="translate(329 50.38070177658362) rotate(0 46.5 0.11018229631194032)"><path d="M0 0 C15.5 0.04, 77.5 0.18, 93 0.22 M0 0 C15.5 0.04, 77.5 0.18, 93 0.22" stroke="#1e1e1e" stroke-width="2" fill="none"></path></g><g transform="translate(329 50.38070177658362) rotate(0 46.5 0.11018229631194032)"><path d="M69.49 8.72 C74.48 6.91, 79.48 5.11, 93 0.22 M69.49 8.72 C75.55 6.53, 81.6 4.34, 93 0.22" stroke="#1e1e1e" stroke-width="2" fill="none"></path></g><g transform="translate(329 50.38070177658362) rotate(0 46.5 0.11018229631194032)"><path d="M69.53 -8.39 C74.51 -6.56, 79.5 -4.73, 93 0.22 M69.53 -8.39 C75.58 -6.17, 81.62 -3.95, 93 0.22" stroke="#1e1e1e" stroke-width="2" fill="none"></path></g></g><mask></mask><g stroke-linecap="round"><g transform="translate(758 50.6102836598547) rotate(0 45.5 -0.10016479307034132)"><path d="M0 0 C15.17 -0.03, 75.83 -0.17, 91 -0.2 M0 0 C15.17 -0.03, 75.83 -0.17, 91 -0.2" stroke="#1e1e1e" stroke-width="2" fill="none"></path></g><g transform="translate(758 50.6102836598547) rotate(0 45.5 -0.10016479307034132)"><path d="M67.53 8.4 C75.65 5.43, 83.77 2.45, 91 -0.2 M67.53 8.4 C75.41 5.51, 83.29 2.63, 91 -0.2" stroke="#1e1e1e" stroke-width="2" fill="none"></path></g><g transform="translate(758 50.6102836598547) rotate(0 45.5 -0.10016479307034132)"><path d="M67.49 -8.7 C75.62 -5.76, 83.76 -2.82, 91 -0.2 M67.49 -8.7 C75.38 -5.85, 83.27 -2.99, 91 -0.2" stroke="#1e1e1e" stroke-width="2" fill="none"></path></g></g><mask></mask></svg>