<svg version="1.1" xmlns="http://www.w3.org/2000/svg" viewBox="0 0 1190.0101010101012 118.5" width="2380.0202020202023" height="237">
  <!-- svg-source:excalidraw -->
  
  <defs>
    <style class="style-fonts">
      @font-face {
        font-family: "Virgil";
        src: url("https://excalidraw.com/Virgil.woff2");
      }
      @font-face {
        font-family: "Cascadia";
        src: url("https://excalidraw.com/Cascadia.woff2");
      }
      @font-face {
        font-family: "Assistant";
        src: url("https://excalidraw.com/Assistant-Regular.woff2");
      }
    </style>
    
  </defs>
  <rect x="0" y="0" width="1190.0101010101012" height="118.5" fill="#ffffff"></rect><g stroke-linecap="round" transform="translate(10 12) rotate(0 157 47)"><path d="M23.5 0 C88.48 0, 153.46 0, 290.5 0 M23.5 0 C107.55 0, 191.61 0, 290.5 0 M290.5 0 C306.17 0, 314 7.83, 314 23.5 M290.5 0 C306.17 0, 314 7.83, 314 23.5 M314 23.5 C314 37, 314 50.51, 314 70.5 M314 23.5 C314 41.37, 314 59.25, 314 70.5 M314 70.5 C314 86.17, 306.17 94, 290.5 94 M314 70.5 C314 86.17, 306.17 94, 290.5 94 M290.5 94 C228.24 94, 165.99 94, 23.5 94 M290.5 94 C219.48 94, 148.46 94, 23.5 94 M23.5 94 C7.83 94, 0 86.17, 0 70.5 M23.5 94 C7.83 94, 0 86.17, 0 70.5 M0 70.5 C0 60.26, 0 50.01, 0 23.5 M0 70.5 C0 56.81, 0 43.12, 0 23.5 M0 23.5 C0 7.83, 7.83 0, 23.5 0 M0 23.5 C0 7.83, 7.83 0, 23.5 0" stroke="#1e1e1e" stroke-width="2" fill="none"></path></g><g transform="translate(38.09375 35) rotate(0 128.90625 24)"><text x="128.90625" y="19.3125" font-family="Cascadia, Segoe UI Emoji" font-size="20px" fill="#1e1e1e" text-anchor="middle" style="white-space: pre;" direction="ltr" dominant-baseline="alphabetic">Analyze FKs and </text><text x="128.90625" y="43.3125" font-family="Cascadia, Segoe UI Emoji" font-size="20px" fill="#1e1e1e" text-anchor="middle" style="white-space: pre;" direction="ltr" dominant-baseline="alphabetic">individual column data</text></g><g stroke-linecap="round" transform="translate(458.01010101010115 10.5) rotate(0 155 49)"><path d="M24.5 0 C114.65 0, 204.8 0, 285.5 0 M24.5 0 C109.12 0, 193.74 0, 285.5 0 M285.5 0 C301.83 0, 310 8.17, 310 24.5 M285.5 0 C301.83 0, 310 8.17, 310 24.5 M310 24.5 C310 35.11, 310 45.73, 310 73.5 M310 24.5 C310 39.33, 310 54.16, 310 73.5 M310 73.5 C310 89.83, 301.83 98, 285.5 98 M310 73.5 C310 89.83, 301.83 98, 285.5 98 M285.5 98 C183.07 98, 80.65 98, 24.5 98 M285.5 98 C185.65 98, 85.8 98, 24.5 98 M24.5 98 C8.17 98, 0 89.83, 0 73.5 M24.5 98 C8.17 98, 0 89.83, 0 73.5 M0 73.5 C0 61.43, 0 49.35, 0 24.5 M0 73.5 C0 54.6, 0 35.7, 0 24.5 M0 24.5 C0 8.17, 8.17 0, 24.5 0 M0 24.5 C0 8.17, 8.17 0, 24.5 0" stroke="#1e1e1e" stroke-width="2" fill="none"></path></g><g transform="translate(484.10385101010115 23.5) rotate(0 128.90625 36)"><text x="128.90625" y="19.3125" font-family="Cascadia, Segoe UI Emoji" font-size="20px" fill="#1e1e1e" text-anchor="middle" style="white-space: pre;" direction="ltr" dominant-baseline="alphabetic">Compute dataset </text><text x="128.90625" y="43.3125" font-family="Cascadia, Segoe UI Emoji" font-size="20px" fill="#1e1e1e" text-anchor="middle" style="white-space: pre;" direction="ltr" dominant-baseline="alphabetic">statistics on FKs and </text><text x="128.90625" y="67.3125" font-family="Cascadia, Segoe UI Emoji" font-size="20px" fill="#1e1e1e" text-anchor="middle" style="white-space: pre;" direction="ltr" dominant-baseline="alphabetic">individual column data</text></g><g stroke-linecap="round" transform="translate(870.0101010101012 10) rotate(0 155 49)"><path d="M24.5 0 C114.2 0, 203.9 0, 285.5 0 M24.5 0 C114.96 0, 205.41 0, 285.5 0 M285.5 0 C301.83 0, 310 8.17, 310 24.5 M285.5 0 C301.83 0, 310 8.17, 310 24.5 M310 24.5 C310 35.46, 310 46.42, 310 73.5 M310 24.5 C310 40.6, 310 56.7, 310 73.5 M310 73.5 C310 89.83, 301.83 98, 285.5 98 M310 73.5 C310 89.83, 301.83 98, 285.5 98 M285.5 98 C231.35 98, 177.21 98, 24.5 98 M285.5 98 C221.08 98, 156.67 98, 24.5 98 M24.5 98 C8.17 98, 0 89.83, 0 73.5 M24.5 98 C8.17 98, 0 89.83, 0 73.5 M0 73.5 C0 56.14, 0 38.79, 0 24.5 M0 73.5 C0 61.64, 0 49.78, 0 24.5 M0 24.5 C0 8.17, 8.17 0, 24.5 0 M0 24.5 C0 8.17, 8.17 0, 24.5 0" stroke="#1e1e1e" stroke-width="2" fill="none"></path></g><g transform="translate(884.3851010101012 35) rotate(0 140.625 24)"><text x="140.625" y="19.3125" font-family="Cascadia, Segoe UI Emoji" font-size="20px" fill="#1e1e1e" text-anchor="middle" style="white-space: pre;" direction="ltr" dominant-baseline="alphabetic">Report computed dataset </text><text x="140.625" y="43.3125" font-family="Cascadia, Segoe UI Emoji" font-size="20px" fill="#1e1e1e" text-anchor="middle" style="white-space: pre;" direction="ltr" dominant-baseline="alphabetic">statistics</text></g><g stroke-linecap="round"><g transform="translate(333.5252525252531 53.82828282828282) rotate(0 58.5858585858586 0)"><path d="M0 0 C19.53 0, 97.64 0, 117.17 0 M0 0 C19.53 0, 97.64 0, 117.17 0" stroke="#1e1e1e" stroke-width="2" fill="none"></path></g><g transform="translate(333.5252525252531 53.82828282828282) rotate(0 58.5858585858586 0)"><path d="M93.68 8.55 C98.91 6.65, 104.14 4.74, 117.17 0 M93.68 8.55 C100.3 6.14, 106.92 3.73, 117.17 0" stroke="#1e1e1e" stroke-width="2" fill="none"></path></g><g transform="translate(333.5252525252531 53.82828282828282) rotate(0 58.5858585858586 0)"><path d="M93.68 -8.55 C98.91 -6.65, 104.14 -4.74, 117.17 0 M93.68 -8.55 C100.3 -6.14, 106.92 -3.73, 117.17 0" stroke="#1e1e1e" stroke-width="2" fill="none"></path></g></g><mask></mask><g stroke-linecap="round"><g transform="translate(781.0000000000005 57.868686868686865) rotate(0 36.36363636363649 0)"><path d="M0 0 C12.12 0, 60.61 0, 72.73 0 M0 0 C12.12 0, 60.61 0, 72.73 0" stroke="#1e1e1e" stroke-width="2" fill="none"></path></g><g transform="translate(781.0000000000005 57.868686868686865) rotate(0 36.36363636363649 0)"><path d="M49.23 8.55 C57.05 5.71, 64.86 2.86, 72.73 0 M49.23 8.55 C54.66 6.58, 60.08 4.6, 72.73 0" stroke="#1e1e1e" stroke-width="2" fill="none"></path></g><g transform="translate(781.0000000000005 57.868686868686865) rotate(0 36.36363636363649 0)"><path d="M49.23 -8.55 C57.05 -5.71, 64.86 -2.86, 72.73 0 M49.23 -8.55 C54.66 -6.58, 60.08 -4.6, 72.73 0" stroke="#1e1e1e" stroke-width="2" fill="none"></path></g></g><mask></mask></svg>