<svg version="1.1" xmlns="http://www.w3.org/2000/svg" viewBox="0 0 916.5 101.5" width="1833" height="203">
  <!-- svg-source:excalidraw -->
  
  <defs>
    <style class="style-fonts">
      @font-face {
        font-family: "Virgil";
        src: url("https://excalidraw.com/Virgil.woff2");
      }
      @font-face {
        font-family: "Cascadia";
        src: url("https://excalidraw.com/Cascadia.woff2");
      }
      @font-face {
        font-family: "Assistant";
        src: url("https://excalidraw.com/Assistant-Regular.woff2");
      }
    </style>
    
  </defs>
  <rect x="0" y="0" width="916.5" height="101.5" fill="#ffffff"></rect><g stroke-linecap="round" transform="translate(10 10.5) rotate(0 66.5 40.5)"><path d="M20.25 0 C55.88 0, 91.51 0, 112.75 0 M20.25 0 C49 0, 77.75 0, 112.75 0 M112.75 0 C126.25 0, 133 6.75, 133 20.25 M112.75 0 C126.25 0, 133 6.75, 133 20.25 M133 20.25 C133 33.36, 133 46.47, 133 60.75 M133 20.25 C133 35.26, 133 50.26, 133 60.75 M133 60.75 C133 74.25, 126.25 81, 112.75 81 M133 60.75 C133 74.25, 126.25 81, 112.75 81 M112.75 81 C76.91 81, 41.07 81, 20.25 81 M112.75 81 C83.97 81, 55.19 81, 20.25 81 M20.25 81 C6.75 81, 0 74.25, 0 60.75 M20.25 81 C6.75 81, 0 74.25, 0 60.75 M0 60.75 C0 47.94, 0 35.13, 0 20.25 M0 60.75 C0 45.66, 0 30.57, 0 20.25 M0 20.25 C0 6.75, 6.75 0, 20.25 0 M0 20.25 C0 6.75, 6.75 0, 20.25 0" stroke="#1e1e1e" stroke-width="2" fill="none"></path></g><g transform="translate(35.484375 27) rotate(0 41.015625 24)"><text x="41.015625" y="19.3125" font-family="Cascadia, Segoe UI Emoji" font-size="20px" fill="#1e1e1e" text-anchor="middle" style="white-space: pre;" direction="ltr" dominant-baseline="alphabetic">CSV </text><text x="41.015625" y="43.3125" font-family="Cascadia, Segoe UI Emoji" font-size="20px" fill="#1e1e1e" text-anchor="middle" style="white-space: pre;" direction="ltr" dominant-baseline="alphabetic">loading</text></g><g stroke-linecap="round" transform="translate(247.5 14) rotate(0 151 38.5)"><path d="M19.25 0 C124.2 0, 229.14 0, 282.75 0 M19.25 0 C104.84 0, 190.44 0, 282.75 0 M282.75 0 C295.58 0, 302 6.42, 302 19.25 M282.75 0 C295.58 0, 302 6.42, 302 19.25 M302 19.25 C302 33.15, 302 47.05, 302 57.75 M302 19.25 C302 32.9, 302 46.56, 302 57.75 M302 57.75 C302 70.58, 295.58 77, 282.75 77 M302 57.75 C302 70.58, 295.58 77, 282.75 77 M282.75 77 C227.74 77, 172.73 77, 19.25 77 M282.75 77 C203.39 77, 124.03 77, 19.25 77 M19.25 77 C6.42 77, 0 70.58, 0 57.75 M19.25 77 C6.42 77, 0 70.58, 0 57.75 M0 57.75 C0 46.24, 0 34.73, 0 19.25 M0 57.75 C0 44.96, 0 32.16, 0 19.25 M0 19.25 C0 6.42, 6.42 0, 19.25 0 M0 19.25 C0 6.42, 6.42 0, 19.25 0" stroke="#1e1e1e" stroke-width="2" fill="none"></path></g><g transform="translate(298.890625 28.5) rotate(0 99.609375 24)"><text x="99.609375" y="19.3125" font-family="Cascadia, Segoe UI Emoji" font-size="20px" fill="#1e1e1e" text-anchor="middle" style="white-space: pre;" direction="ltr" dominant-baseline="alphabetic">Manual structure </text><text x="99.609375" y="43.3125" font-family="Cascadia, Segoe UI Emoji" font-size="20px" fill="#1e1e1e" text-anchor="middle" style="white-space: pre;" direction="ltr" dominant-baseline="alphabetic">inspection</text></g><g stroke-linecap="round" transform="translate(643.5 10) rotate(0 131.5 38.5)"><path d="M19.25 0 C104.82 0, 190.38 0, 243.75 0 M19.25 0 C76.44 0, 133.62 0, 243.75 0 M243.75 0 C256.58 0, 263 6.42, 263 19.25 M243.75 0 C256.58 0, 263 6.42, 263 19.25 M263 19.25 C263 31.51, 263 43.76, 263 57.75 M263 19.25 C263 29.27, 263 39.29, 263 57.75 M263 57.75 C263 70.58, 256.58 77, 243.75 77 M263 57.75 C263 70.58, 256.58 77, 243.75 77 M243.75 77 C184.14 77, 124.54 77, 19.25 77 M243.75 77 C178.78 77, 113.81 77, 19.25 77 M19.25 77 C6.42 77, 0 70.58, 0 57.75 M19.25 77 C6.42 77, 0 70.58, 0 57.75 M0 57.75 C0 48.59, 0 39.42, 0 19.25 M0 57.75 C0 44.38, 0 31.02, 0 19.25 M0 19.25 C0 6.42, 6.42 0, 19.25 0 M0 19.25 C0 6.42, 6.42 0, 19.25 0" stroke="#1e1e1e" stroke-width="2" fill="none"></path></g><g transform="translate(657.8125 36.5) rotate(0 117.1875 12)"><text x="117.1875" y="19.3125" font-family="Cascadia, Segoe UI Emoji" font-size="20px" fill="#1e1e1e" text-anchor="middle" style="white-space: pre;" direction="ltr" dominant-baseline="alphabetic">Manual IC inspection</text></g><g stroke-linecap="round"><g transform="translate(152 55.5) rotate(0 45.5 -0.5)"><path d="M0 0 C15.17 -0.17, 75.83 -0.83, 91 -1 M0 0 C15.17 -0.17, 75.83 -0.83, 91 -1" stroke="#1e1e1e" stroke-width="2" fill="none"></path></g><g transform="translate(152 55.5) rotate(0 45.5 -0.5)"><path d="M67.6 7.81 C75.1 4.99, 82.6 2.16, 91 -1 M67.6 7.81 C75.18 4.96, 82.75 2.11, 91 -1" stroke="#1e1e1e" stroke-width="2" fill="none"></path></g><g transform="translate(152 55.5) rotate(0 45.5 -0.5)"><path d="M67.42 -9.29 C74.97 -6.63, 82.53 -3.98, 91 -1 M67.42 -9.29 C75.05 -6.61, 82.69 -3.92, 91 -1" stroke="#1e1e1e" stroke-width="2" fill="none"></path></g></g><mask></mask><g stroke-linecap="round"><g transform="translate(561 51.5) rotate(0 37 0)"><path d="M0 0 C12.33 0, 61.67 0, 74 0 M0 0 C12.33 0, 61.67 0, 74 0" stroke="#1e1e1e" stroke-width="2" fill="none"></path></g><g transform="translate(561 51.5) rotate(0 37 0)"><path d="M50.51 8.55 C56.12 6.51, 61.74 4.46, 74 0 M50.51 8.55 C56.75 6.28, 62.99 4.01, 74 0" stroke="#1e1e1e" stroke-width="2" fill="none"></path></g><g transform="translate(561 51.5) rotate(0 37 0)"><path d="M50.51 -8.55 C56.12 -6.51, 61.74 -4.46, 74 0 M50.51 -8.55 C56.75 -6.28, 62.99 -4.01, 74 0" stroke="#1e1e1e" stroke-width="2" fill="none"></path></g></g><mask></mask></svg>