<svg version="1.1" xmlns="http://www.w3.org/2000/svg" viewBox="0 0 1625.5 103" width="3251" height="206">
  <!-- svg-source:excalidraw -->
  
  <defs>
    <style class="style-fonts">
      @font-face {
        font-family: "Virgil";
        src: url("https://excalidraw.com/Virgil.woff2");
      }
      @font-face {
        font-family: "Cascadia";
        src: url("https://excalidraw.com/Cascadia.woff2");
      }
      @font-face {
        font-family: "Assistant";
        src: url("https://excalidraw.com/Assistant-Regular.woff2");
      }
    </style>
    
  </defs>
  <rect x="0" y="0" width="1625.5" height="103" fill="#ffffff"></rect><g stroke-linecap="round" transform="translate(10 13) rotate(0 126.5 37.5)"><path d="M18.75 0 C87.17 0, 155.59 0, 234.25 0 M18.75 0 C98.99 0, 179.23 0, 234.25 0 M234.25 0 C246.75 0, 253 6.25, 253 18.75 M234.25 0 C246.75 0, 253 6.25, 253 18.75 M253 18.75 C253 32.85, 253 46.96, 253 56.25 M253 18.75 C253 27.58, 253 36.42, 253 56.25 M253 56.25 C253 68.75, 246.75 75, 234.25 75 M253 56.25 C253 68.75, 246.75 75, 234.25 75 M234.25 75 C184.48 75, 134.71 75, 18.75 75 M234.25 75 C158.42 75, 82.59 75, 18.75 75 M18.75 75 C6.25 75, 0 68.75, 0 56.25 M18.75 75 C6.25 75, 0 68.75, 0 56.25 M0 56.25 C0 44.34, 0 32.44, 0 18.75 M0 56.25 C0 45.62, 0 34.99, 0 18.75 M0 18.75 C0 6.25, 6.25 0, 18.75 0 M0 18.75 C0 6.25, 6.25 0, 18.75 0" stroke="#1e1e1e" stroke-width="2" fill="none"></path></g><g transform="translate(25.171875 38.5) rotate(0 111.328125 12)"><text x="111.328125" y="19.3125" font-family="Cascadia, Segoe UI Emoji" font-size="20px" fill="#1e1e1e" text-anchor="middle" style="white-space: pre;" direction="ltr" dominant-baseline="alphabetic">Create SQLite views</text></g><g stroke-linecap="round" transform="translate(357.5 17.5) rotate(0 145 37)"><path d="M18.5 0 C103.43 0, 188.36 0, 271.5 0 M18.5 0 C96.08 0, 173.66 0, 271.5 0 M271.5 0 C283.83 0, 290 6.17, 290 18.5 M271.5 0 C283.83 0, 290 6.17, 290 18.5 M290 18.5 C290 26.98, 290 35.46, 290 55.5 M290 18.5 C290 28.27, 290 38.04, 290 55.5 M290 55.5 C290 67.83, 283.83 74, 271.5 74 M290 55.5 C290 67.83, 283.83 74, 271.5 74 M271.5 74 C202.82 74, 134.15 74, 18.5 74 M271.5 74 C209.07 74, 146.64 74, 18.5 74 M18.5 74 C6.17 74, 0 67.83, 0 55.5 M18.5 74 C6.17 74, 0 67.83, 0 55.5 M0 55.5 C0 47.03, 0 38.56, 0 18.5 M0 55.5 C0 43.55, 0 31.6, 0 18.5 M0 18.5 C0 6.17, 6.17 0, 18.5 0 M0 18.5 C0 6.17, 6.17 0, 18.5 0" stroke="#1e1e1e" stroke-width="2" fill="none"></path></g><g transform="translate(367.734375 30.5) rotate(0 134.765625 24)"><text x="134.765625" y="19.3125" font-family="Cascadia, Segoe UI Emoji" font-size="20px" fill="#1e1e1e" text-anchor="middle" style="white-space: pre;" direction="ltr" dominant-baseline="alphabetic">Identify relational IC </text><text x="134.765625" y="43.3125" font-family="Cascadia, Segoe UI Emoji" font-size="20px" fill="#1e1e1e" text-anchor="middle" style="white-space: pre;" direction="ltr" dominant-baseline="alphabetic">violations</text></g><g stroke-linecap="round" transform="translate(749 15) rotate(0 184.5 39)"><path d="M19.5 0 C93.28 0, 167.06 0, 349.5 0 M19.5 0 C133.87 0, 248.23 0, 349.5 0 M349.5 0 C362.5 0, 369 6.5, 369 19.5 M349.5 0 C362.5 0, 369 6.5, 369 19.5 M369 19.5 C369 34, 369 48.5, 369 58.5 M369 19.5 C369 27.78, 369 36.06, 369 58.5 M369 58.5 C369 71.5, 362.5 78, 349.5 78 M369 58.5 C369 71.5, 362.5 78, 349.5 78 M349.5 78 C243.48 78, 137.46 78, 19.5 78 M349.5 78 C225.16 78, 100.83 78, 19.5 78 M19.5 78 C6.5 78, 0 71.5, 0 58.5 M19.5 78 C6.5 78, 0 71.5, 0 58.5 M0 58.5 C0 43.76, 0 29.02, 0 19.5 M0 58.5 C0 49.66, 0 40.82, 0 19.5 M0 19.5 C0 6.5, 6.5 0, 19.5 0 M0 19.5 C0 6.5, 6.5 0, 19.5 0" stroke="#1e1e1e" stroke-width="2" fill="none"></path></g><g transform="translate(763.578125 30) rotate(0 169.921875 24)"><text x="169.921875" y="19.3125" font-family="Cascadia, Segoe UI Emoji" font-size="20px" fill="#1e1e1e" text-anchor="middle" style="white-space: pre;" direction="ltr" dominant-baseline="alphabetic">Fix relational IC violations </text><text x="169.921875" y="43.3125" font-family="Cascadia, Segoe UI Emoji" font-size="20px" fill="#1e1e1e" text-anchor="middle" style="white-space: pre;" direction="ltr" dominant-baseline="alphabetic">according to policy</text></g><g stroke-linecap="round" transform="translate(1236.5 10) rotate(0 189.5 40.5)"><path d="M20.25 0 C139.36 0, 258.48 0, 358.75 0 M20.25 0 C107.78 0, 195.31 0, 358.75 0 M358.75 0 C372.25 0, 379 6.75, 379 20.25 M358.75 0 C372.25 0, 379 6.75, 379 20.25 M379 20.25 C379 31.35, 379 42.44, 379 60.75 M379 20.25 C379 36.19, 379 52.12, 379 60.75 M379 60.75 C379 74.25, 372.25 81, 358.75 81 M379 60.75 C379 74.25, 372.25 81, 358.75 81 M358.75 81 C287.25 81, 215.76 81, 20.25 81 M358.75 81 C224.59 81, 90.43 81, 20.25 81 M20.25 81 C6.75 81, 0 74.25, 0 60.75 M20.25 81 C6.75 81, 0 74.25, 0 60.75 M0 60.75 C0 51.13, 0 41.51, 0 20.25 M0 60.75 C0 44.61, 0 28.47, 0 20.25 M0 20.25 C0 6.75, 6.75 0, 20.25 0 M0 20.25 C0 6.75, 6.75 0, 20.25 0" stroke="#1e1e1e" stroke-width="2" fill="none"></path></g><g transform="translate(1261.9375 26.5) rotate(0 164.0625 24)"><text x="164.0625" y="19.3125" font-family="Cascadia, Segoe UI Emoji" font-size="20px" fill="#1e1e1e" text-anchor="middle" style="white-space: pre;" direction="ltr" dominant-baseline="alphabetic">Write fully cleaned dataset </text><text x="164.0625" y="43.3125" font-family="Cascadia, Segoe UI Emoji" font-size="20px" fill="#1e1e1e" text-anchor="middle" style="white-space: pre;" direction="ltr" dominant-baseline="alphabetic">into cleaned entity tables</text></g><g stroke-linecap="round"><g transform="translate(271 52) rotate(0 38.5 0)"><path d="M0 0 C12.83 0, 64.17 0, 77 0 M0 0 C12.83 0, 64.17 0, 77 0" stroke="#1e1e1e" stroke-width="2" fill="none"></path></g><g transform="translate(271 52) rotate(0 38.5 0)"><path d="M53.51 8.55 C59.51 6.37, 65.51 4.18, 77 0 M53.51 8.55 C61.2 5.75, 68.9 2.95, 77 0" stroke="#1e1e1e" stroke-width="2" fill="none"></path></g><g transform="translate(271 52) rotate(0 38.5 0)"><path d="M53.51 -8.55 C59.51 -6.37, 65.51 -4.18, 77 0 M53.51 -8.55 C61.2 -5.75, 68.9 -2.95, 77 0" stroke="#1e1e1e" stroke-width="2" fill="none"></path></g></g><mask></mask><g stroke-linecap="round"><g transform="translate(658 53.11023852324816) rotate(0 42.5 0.13725902998894668)"><path d="M0 0 C14.17 0.05, 70.83 0.23, 85 0.27 M0 0 C14.17 0.05, 70.83 0.23, 85 0.27" stroke="#1e1e1e" stroke-width="2" fill="none"></path></g><g transform="translate(658 53.11023852324816) rotate(0 42.5 0.13725902998894668)"><path d="M61.48 8.75 C70.22 5.6, 78.96 2.45, 85 0.27 M61.48 8.75 C70.15 5.63, 78.81 2.5, 85 0.27" stroke="#1e1e1e" stroke-width="2" fill="none"></path></g><g transform="translate(658 53.11023852324816) rotate(0 42.5 0.13725902998894668)"><path d="M61.54 -8.35 C70.26 -5.15, 78.98 -1.94, 85 0.27 M61.54 -8.35 C70.18 -5.17, 78.82 -2, 85 0.27" stroke="#1e1e1e" stroke-width="2" fill="none"></path></g></g><mask></mask><g stroke-linecap="round"><g transform="translate(1133 55.605591991354984) rotate(0 46 -0.2387292547652038)"><path d="M0 0 C15.33 -0.08, 76.67 -0.4, 92 -0.48 M0 0 C15.33 -0.08, 76.67 -0.4, 92 -0.48" stroke="#1e1e1e" stroke-width="2" fill="none"></path></g><g transform="translate(1133 55.605591991354984) rotate(0 46 -0.2387292547652038)"><path d="M68.55 8.19 C76.98 5.08, 85.42 1.96, 92 -0.48 M68.55 8.19 C73.27 6.45, 77.98 4.71, 92 -0.48" stroke="#1e1e1e" stroke-width="2" fill="none"></path></g><g transform="translate(1133 55.605591991354984) rotate(0 46 -0.2387292547652038)"><path d="M68.46 -8.91 C76.93 -5.88, 85.39 -2.84, 92 -0.48 M68.46 -8.91 C73.19 -7.21, 77.93 -5.52, 92 -0.48" stroke="#1e1e1e" stroke-width="2" fill="none"></path></g></g><mask></mask></svg>