<svg version="1.1" xmlns="http://www.w3.org/2000/svg" viewBox="0 0 2669.9961240310067 117.2235142118862" width="5339.9922480620135" height="234.4470284237724">
  <!-- svg-source:excalidraw -->
  
  <defs>
    <style class="style-fonts">
      @font-face {
        font-family: "Virgil";
        src: url("https://excalidraw.com/Virgil.woff2");
      }
      @font-face {
        font-family: "Cascadia";
        src: url("https://excalidraw.com/Cascadia.woff2");
      }
      @font-face {
        font-family: "Assistant";
        src: url("https://excalidraw.com/Assistant-Regular.woff2");
      }
    </style>
    
  </defs>
  <rect x="0" y="0" width="2669.9961240310067" height="117.2235142118862" fill="#ffffff"></rect><g stroke-linecap="round" transform="translate(10 10.5) rotate(0 98.5 46.5)"><path d="M23.25 0 C72.17 0, 121.09 0, 173.75 0 M23.25 0 C53.93 0, 84.61 0, 173.75 0 M173.75 0 C189.25 0, 197 7.75, 197 23.25 M173.75 0 C189.25 0, 197 7.75, 197 23.25 M197 23.25 C197 37.54, 197 51.83, 197 69.75 M197 23.25 C197 35.76, 197 48.28, 197 69.75 M197 69.75 C197 85.25, 189.25 93, 173.75 93 M197 69.75 C197 85.25, 189.25 93, 173.75 93 M173.75 93 C128.69 93, 83.63 93, 23.25 93 M173.75 93 C132.8 93, 91.84 93, 23.25 93 M23.25 93 C7.75 93, 0 85.25, 0 69.75 M23.25 93 C7.75 93, 0 85.25, 0 69.75 M0 69.75 C0 54.9, 0 40.06, 0 23.25 M0 69.75 C0 57.55, 0 45.34, 0 23.25 M0 23.25 C0 7.75, 7.75 0, 23.25 0 M0 23.25 C0 7.75, 7.75 0, 23.25 0" stroke="#1e1e1e" stroke-width="2" fill="none"></path></g><g transform="translate(38.1875 33) rotate(0 70.3125 24)"><text x="70.3125" y="19.3125" font-family="Cascadia, Segoe UI Emoji" font-size="20px" fill="#1e1e1e" text-anchor="middle" style="white-space: pre;" direction="ltr" dominant-baseline="alphabetic">Manual Data </text><text x="70.3125" y="43.3125" font-family="Cascadia, Segoe UI Emoji" font-size="20px" fill="#1e1e1e" text-anchor="middle" style="white-space: pre;" direction="ltr" dominant-baseline="alphabetic">Inspection</text></g><g stroke-linecap="round" transform="translate(348.2441860465117 10) rotate(0 98.5 46.5)"><path d="M23.25 0 C57.18 0, 91.1 0, 173.75 0 M23.25 0 C64.19 0, 105.13 0, 173.75 0 M173.75 0 C189.25 0, 197 7.75, 197 23.25 M173.75 0 C189.25 0, 197 7.75, 197 23.25 M197 23.25 C197 37.41, 197 51.56, 197 69.75 M197 23.25 C197 36.24, 197 49.23, 197 69.75 M197 69.75 C197 85.25, 189.25 93, 173.75 93 M197 69.75 C197 85.25, 189.25 93, 173.75 93 M173.75 93 C124.07 93, 74.4 93, 23.25 93 M173.75 93 C117.53 93, 61.31 93, 23.25 93 M23.25 93 C7.75 93, 0 85.25, 0 69.75 M23.25 93 C7.75 93, 0 85.25, 0 69.75 M0 69.75 C0 57.61, 0 45.48, 0 23.25 M0 69.75 C0 59.82, 0 49.89, 0 23.25 M0 23.25 C0 7.75, 7.75 0, 23.25 0 M0 23.25 C0 7.75, 7.75 0, 23.25 0" stroke="#1e1e1e" stroke-width="2" fill="none"></path></g><g transform="translate(376.4316860465117 44.5) rotate(0 70.3125 12)"><text x="70.3125" y="19.3125" font-family="Cascadia, Segoe UI Emoji" font-size="20px" fill="#1e1e1e" text-anchor="middle" style="white-space: pre;" direction="ltr" dominant-baseline="alphabetic">Data Loading</text></g><g stroke-linecap="round" transform="translate(1116.621447028424 12.666666666666686) rotate(0 98.5 46.5)"><path d="M23.25 0 C70.01 0, 116.77 0, 173.75 0 M23.25 0 C57.4 0, 91.56 0, 173.75 0 M173.75 0 C189.25 0, 197 7.75, 197 23.25 M173.75 0 C189.25 0, 197 7.75, 197 23.25 M197 23.25 C197 34.53, 197 45.8, 197 69.75 M197 23.25 C197 34.84, 197 46.42, 197 69.75 M197 69.75 C197 85.25, 189.25 93, 173.75 93 M197 69.75 C197 85.25, 189.25 93, 173.75 93 M173.75 93 C124.83 93, 75.91 93, 23.25 93 M173.75 93 C120.03 93, 66.32 93, 23.25 93 M23.25 93 C7.75 93, 0 85.25, 0 69.75 M23.25 93 C7.75 93, 0 85.25, 0 69.75 M0 69.75 C0 56.28, 0 42.81, 0 23.25 M0 69.75 C0 57.01, 0 44.27, 0 23.25 M0 23.25 C0 7.75, 7.75 0, 23.25 0 M0 23.25 C0 7.75, 7.75 0, 23.25 0" stroke="#1e1e1e" stroke-width="2" fill="none"></path></g><g transform="translate(1144.808947028424 47.166666666666686) rotate(0 70.3125 12)"><text x="70.3125" y="19.3125" font-family="Cascadia, Segoe UI Emoji" font-size="20px" fill="#1e1e1e" text-anchor="middle" style="white-space: pre;" direction="ltr" dominant-baseline="alphabetic">Data Loading</text></g><g stroke-linecap="round" transform="translate(679.140826873385 15.666666666666657) rotate(0 125.16666666666669 42.611111111111114)"><path d="M21.31 0 C100.41 0, 179.51 0, 229.03 0 M21.31 0 C83.98 0, 146.66 0, 229.03 0 M229.03 0 C243.23 0, 250.33 7.1, 250.33 21.31 M229.03 0 C243.23 0, 250.33 7.1, 250.33 21.31 M250.33 21.31 C250.33 36.74, 250.33 52.17, 250.33 63.92 M250.33 21.31 C250.33 29.84, 250.33 38.38, 250.33 63.92 M250.33 63.92 C250.33 78.12, 243.23 85.22, 229.03 85.22 M250.33 63.92 C250.33 78.12, 243.23 85.22, 229.03 85.22 M229.03 85.22 C163.32 85.22, 97.61 85.22, 21.31 85.22 M229.03 85.22 C171.36 85.22, 113.69 85.22, 21.31 85.22 M21.31 85.22 C7.1 85.22, 0 78.12, 0 63.92 M21.31 85.22 C7.1 85.22, 0 78.12, 0 63.92 M0 63.92 C0 54.44, 0 44.97, 0 21.31 M0 63.92 C0 53.39, 0 42.85, 0 21.31 M0 21.31 C0 7.1, 7.1 0, 21.31 0 M0 21.31 C0 7.1, 7.1 0, 21.31 0" stroke="#1e1e1e" stroke-width="2" fill="none"></path></g><g transform="translate(698.8387435400516 34.27777777777777) rotate(0 105.46875 24)"><text x="105.46875" y="19.3125" font-family="Cascadia, Segoe UI Emoji" font-size="20px" fill="#1e1e1e" text-anchor="middle" style="white-space: pre;" direction="ltr" dominant-baseline="alphabetic">Single-value IC </text><text x="105.46875" y="43.3125" font-family="Cascadia, Segoe UI Emoji" font-size="20px" fill="#1e1e1e" text-anchor="middle" style="white-space: pre;" direction="ltr" dominant-baseline="alphabetic">violation checking</text></g><g stroke-linecap="round"><g transform="translate(216.55555555555557 60.30343734275252) rotate(0 57.81653746770023 -0.19107929790676792)"><path d="M0 0 C32.96 -0.11, 65.92 -0.22, 115.63 -0.38 M0 0 C27.85 -0.09, 55.71 -0.18, 115.63 -0.38" stroke="#1e1e1e" stroke-width="2" fill="none"></path></g><g transform="translate(216.55555555555557 60.30343734275252) rotate(0 57.81653746770023 -0.19107929790676792)"><path d="M92.17 8.25 C98.86 5.79, 105.55 3.33, 115.63 -0.38 M92.17 8.25 C97.82 6.17, 103.47 4.09, 115.63 -0.38" stroke="#1e1e1e" stroke-width="2" fill="none"></path></g><g transform="translate(216.55555555555557 60.30343734275252) rotate(0 57.81653746770023 -0.19107929790676792)"><path d="M92.11 -8.85 C98.82 -6.44, 105.52 -4.02, 115.63 -0.38 M92.11 -8.85 C97.78 -6.81, 103.44 -4.77, 115.63 -0.38" stroke="#1e1e1e" stroke-width="2" fill="none"></path></g></g><mask></mask><g stroke-linecap="round"><g transform="translate(555.5219638242895 53.13360964066234) rotate(0 55.503875968992304 0.6978351162405261)"><path d="M0 0 C26.55 0.33, 53.09 0.67, 111.01 1.4 M0 0 C38.6 0.49, 77.2 0.97, 111.01 1.4" stroke="#1e1e1e" stroke-width="2" fill="none"></path></g><g transform="translate(555.5219638242895 53.13360964066234) rotate(0 55.503875968992304 0.6978351162405261)"><path d="M87.41 9.65 C93.05 7.68, 98.7 5.7, 111.01 1.4 M87.41 9.65 C95.62 6.78, 103.82 3.91, 111.01 1.4" stroke="#1e1e1e" stroke-width="2" fill="none"></path></g><g transform="translate(555.5219638242895 53.13360964066234) rotate(0 55.503875968992304 0.6978351162405261)"><path d="M87.62 -7.45 C93.22 -5.33, 98.81 -3.22, 111.01 1.4 M87.62 -7.45 C95.76 -4.37, 103.89 -1.3, 111.01 1.4" stroke="#1e1e1e" stroke-width="2" fill="none"></path></g></g><mask></mask><g stroke-linecap="round"><g transform="translate(945.4465337239361 57.44444444444457) rotate(0 76.78190109668822 0)"><path d="M0 0 C50.39 0, 100.77 0, 153.56 0 M0 0 C44.16 0, 88.33 0, 153.56 0" stroke="#1e1e1e" stroke-width="2" fill="none"></path></g><g transform="translate(945.4465337239361 57.44444444444457) rotate(0 76.78190109668822 0)"><path d="M130.07 8.55 C137.78 5.74, 145.49 2.94, 153.56 0 M130.07 8.55 C136.83 6.09, 143.58 3.63, 153.56 0" stroke="#1e1e1e" stroke-width="2" fill="none"></path></g><g transform="translate(945.4465337239361 57.44444444444457) rotate(0 76.78190109668822 0)"><path d="M130.07 -8.55 C137.78 -5.74, 145.49 -2.94, 153.56 0 M130.07 -8.55 C136.83 -6.09, 143.58 -3.63, 153.56 0" stroke="#1e1e1e" stroke-width="2" fill="none"></path></g></g><mask></mask><g stroke-linecap="round" transform="translate(1471.104651162791 13.166666666666742) rotate(0 136.83333333333314 46.5)"><path d="M23.25 0 C82.42 0, 141.6 0, 250.42 0 M23.25 0 C69.7 0, 116.14 0, 250.42 0 M250.42 0 C265.92 0, 273.67 7.75, 273.67 23.25 M250.42 0 C265.92 0, 273.67 7.75, 273.67 23.25 M273.67 23.25 C273.67 40.89, 273.67 58.54, 273.67 69.75 M273.67 23.25 C273.67 37.54, 273.67 51.83, 273.67 69.75 M273.67 69.75 C273.67 85.25, 265.92 93, 250.42 93 M273.67 69.75 C273.67 85.25, 265.92 93, 250.42 93 M250.42 93 C181.29 93, 112.16 93, 23.25 93 M250.42 93 C177.49 93, 104.57 93, 23.25 93 M23.25 93 C7.75 93, 0 85.25, 0 69.75 M23.25 93 C7.75 93, 0 85.25, 0 69.75 M0 69.75 C0 56.99, 0 44.22, 0 23.25 M0 69.75 C0 54.88, 0 40.02, 0 23.25 M0 23.25 C0 7.75, 7.75 0, 23.25 0 M0 23.25 C0 7.75, 7.75 0, 23.25 0" stroke="#1e1e1e" stroke-width="2" fill="none"></path></g><g transform="translate(1502.469234496124 35.66666666666674) rotate(0 105.46875 24)"><text x="105.46875" y="19.3125" font-family="Cascadia, Segoe UI Emoji" font-size="20px" fill="#1e1e1e" text-anchor="middle" style="white-space: pre;" direction="ltr" dominant-baseline="alphabetic">Foreign-key IC </text><text x="105.46875" y="43.3125" font-family="Cascadia, Segoe UI Emoji" font-size="20px" fill="#1e1e1e" text-anchor="middle" style="white-space: pre;" direction="ltr" dominant-baseline="alphabetic">violation checking</text></g><g stroke-linecap="round"><g transform="translate(1322.7750659935414 64.3985777359872) rotate(0 65.63701480684688 -0.31121103826838237)"><path d="M0 0 C28.18 -0.13, 56.36 -0.27, 131.27 -0.62 M0 0 C41.3 -0.2, 82.6 -0.39, 131.27 -0.62" stroke="#1e1e1e" stroke-width="2" fill="none"></path></g><g transform="translate(1322.7750659935414 64.3985777359872) rotate(0 65.63701480684688 -0.31121103826838237)"><path d="M107.82 8.04 C112.86 6.18, 117.89 4.32, 131.27 -0.62 M107.82 8.04 C115.2 5.31, 122.58 2.59, 131.27 -0.62" stroke="#1e1e1e" stroke-width="2" fill="none"></path></g><g transform="translate(1322.7750659935414 64.3985777359872) rotate(0 65.63701480684688 -0.31121103826838237)"><path d="M107.74 -9.06 C112.79 -7.25, 117.85 -5.44, 131.27 -0.62 M107.74 -9.06 C115.14 -6.41, 122.55 -3.75, 131.27 -0.62" stroke="#1e1e1e" stroke-width="2" fill="none"></path></g></g><mask></mask><g stroke-linecap="round" transform="translate(2386.32945736434 13.512273901808783) rotate(0 136.83333333333326 46.5)"><path d="M23.25 0 C81.09 0, 138.93 0, 250.42 0 M23.25 0 C100.78 0, 178.31 0, 250.42 0 M250.42 0 C265.92 0, 273.67 7.75, 273.67 23.25 M250.42 0 C265.92 0, 273.67 7.75, 273.67 23.25 M273.67 23.25 C273.67 37.79, 273.67 52.34, 273.67 69.75 M273.67 23.25 C273.67 34.71, 273.67 46.18, 273.67 69.75 M273.67 69.75 C273.67 85.25, 265.92 93, 250.42 93 M273.67 69.75 C273.67 85.25, 265.92 93, 250.42 93 M250.42 93 C195.29 93, 140.17 93, 23.25 93 M250.42 93 C202.27 93, 154.13 93, 23.25 93 M23.25 93 C7.75 93, 0 85.25, 0 69.75 M23.25 93 C7.75 93, 0 85.25, 0 69.75 M0 69.75 C0 54.34, 0 38.93, 0 23.25 M0 69.75 C0 55.73, 0 41.7, 0 23.25 M0 23.25 C0 7.75, 7.75 0, 23.25 0 M0 23.25 C0 7.75, 7.75 0, 23.25 0" stroke="#1e1e1e" stroke-width="2" fill="none"></path></g><g transform="translate(2441.1315406976732 48.01227390180878) rotate(0 82.03125 12)"><text x="82.03125" y="19.3125" font-family="Cascadia, Segoe UI Emoji" font-size="20px" fill="#1e1e1e" text-anchor="middle" style="white-space: pre;" direction="ltr" dominant-baseline="alphabetic">Data exporting</text></g><g stroke-linecap="round"><g transform="translate(1757.3307493540037 56.781355462835535) rotate(0 78.95930232558248 0.2425954925354148)"><path d="M0 0 C44.97 0.14, 89.94 0.28, 157.92 0.49 M0 0 C42.16 0.13, 84.31 0.26, 157.92 0.49" stroke="#1e1e1e" stroke-width="2" fill="none"></path></g><g transform="translate(1757.3307493540037 56.781355462835535) rotate(0 78.95930232558248 0.2425954925354148)"><path d="M134.4 8.96 C141.1 6.55, 147.79 4.13, 157.92 0.49 M134.4 8.96 C140.68 6.7, 146.96 4.44, 157.92 0.49" stroke="#1e1e1e" stroke-width="2" fill="none"></path></g><g transform="translate(1757.3307493540037 56.781355462835535) rotate(0 78.95930232558248 0.2425954925354148)"><path d="M134.45 -8.14 C141.14 -5.68, 147.82 -3.23, 157.92 0.49 M134.45 -8.14 C140.72 -5.84, 146.98 -3.53, 157.92 0.49" stroke="#1e1e1e" stroke-width="2" fill="none"></path></g></g><mask></mask><g stroke-linecap="round" transform="translate(1923.7648578811377 14.223514211886197) rotate(0 136.83333333333326 46.5)"><path d="M23.25 0 C107.71 0, 192.16 0, 250.42 0 M23.25 0 C93.8 0, 164.35 0, 250.42 0 M250.42 0 C265.92 0, 273.67 7.75, 273.67 23.25 M250.42 0 C265.92 0, 273.67 7.75, 273.67 23.25 M273.67 23.25 C273.67 39.92, 273.67 56.59, 273.67 69.75 M273.67 23.25 C273.67 38.27, 273.67 53.3, 273.67 69.75 M273.67 69.75 C273.67 85.25, 265.92 93, 250.42 93 M273.67 69.75 C273.67 85.25, 265.92 93, 250.42 93 M250.42 93 C190.23 93, 130.05 93, 23.25 93 M250.42 93 C176.83 93, 103.24 93, 23.25 93 M23.25 93 C7.75 93, 0 85.25, 0 69.75 M23.25 93 C7.75 93, 0 85.25, 0 69.75 M0 69.75 C0 59.69, 0 49.62, 0 23.25 M0 69.75 C0 54.57, 0 39.38, 0 23.25 M0 23.25 C0 7.75, 7.75 0, 23.25 0 M0 23.25 C0 7.75, 7.75 0, 23.25 0" stroke="#1e1e1e" stroke-width="2" fill="none"></path></g><g transform="translate(1978.5669412144707 48.7235142118862) rotate(0 82.03125 12)"><text x="82.03125" y="19.3125" font-family="Cascadia, Segoe UI Emoji" font-size="20px" fill="#1e1e1e" text-anchor="middle" style="white-space: pre;" direction="ltr" dominant-baseline="alphabetic">Data reporting</text></g><g stroke-linecap="round"><g transform="translate(2211.7086563307494 62.2335078273602) rotate(0 78.53779069767461 0.016136713231247768)"><path d="M0 0 C54.72 0.01, 109.44 0.02, 157.08 0.03 M0 0 C32.84 0.01, 65.69 0.01, 157.08 0.03" stroke="#1e1e1e" stroke-width="2" fill="none"></path></g><g transform="translate(2211.7086563307494 62.2335078273602) rotate(0 78.53779069767461 0.016136713231247768)"><path d="M133.58 8.58 C141.77 5.6, 149.95 2.62, 157.08 0.03 M133.58 8.58 C138.49 6.79, 143.41 5, 157.08 0.03" stroke="#1e1e1e" stroke-width="2" fill="none"></path></g><g transform="translate(2211.7086563307494 62.2335078273602) rotate(0 78.53779069767461 0.016136713231247768)"><path d="M133.59 -8.52 C141.77 -5.54, 149.95 -2.56, 157.08 0.03 M133.59 -8.52 C138.5 -6.73, 143.41 -4.95, 157.08 0.03" stroke="#1e1e1e" stroke-width="2" fill="none"></path></g></g><mask></mask></svg>