<svg version="1.1" xmlns="http://www.w3.org/2000/svg" viewBox="0 0 2995.499999999999 534.3333333333333" width="5990.999999999998" height="1068.6666666666665">
  <!-- svg-source:excalidraw -->
  
  <defs>
    <style class="style-fonts">
      @font-face {
        font-family: "Virgil";
        src: url("https://excalidraw.com/Virgil.woff2");
      }
      @font-face {
        font-family: "Cascadia";
        src: url("https://excalidraw.com/Cascadia.woff2");
      }
      @font-face {
        font-family: "Assistant";
        src: url("https://excalidraw.com/Assistant-Regular.woff2");
      }
    </style>
    
  </defs>
  <rect x="0" y="0" width="2995.499999999999" height="534.3333333333333" fill="#ffffff"></rect><g stroke-linecap="round" transform="translate(62.05555555555566 10.5) rotate(0 98.5 46.5)"><path d="M23.25 0 C72.17 0, 121.09 0, 173.75 0 M23.25 0 C53.93 0, 84.61 0, 173.75 0 M173.75 0 C189.25 0, 197 7.75, 197 23.25 M173.75 0 C189.25 0, 197 7.75, 197 23.25 M197 23.25 C197 37.54, 197 51.83, 197 69.75 M197 23.25 C197 35.76, 197 48.28, 197 69.75 M197 69.75 C197 85.25, 189.25 93, 173.75 93 M197 69.75 C197 85.25, 189.25 93, 173.75 93 M173.75 93 C128.69 93, 83.63 93, 23.25 93 M173.75 93 C132.8 93, 91.84 93, 23.25 93 M23.25 93 C7.75 93, 0 85.25, 0 69.75 M23.25 93 C7.75 93, 0 85.25, 0 69.75 M0 69.75 C0 54.9, 0 40.06, 0 23.25 M0 69.75 C0 57.55, 0 45.34, 0 23.25 M0 23.25 C0 7.75, 7.75 0, 23.25 0 M0 23.25 C0 7.75, 7.75 0, 23.25 0" stroke="#1e1e1e" stroke-width="2" fill="none"></path></g><g transform="translate(90.24305555555566 33) rotate(0 70.3125 24)"><text x="70.3125" y="19.3125" font-family="Cascadia, Segoe UI Emoji" font-size="20px" fill="#1e1e1e" text-anchor="middle" style="white-space: pre;" direction="ltr" dominant-baseline="alphabetic">Manual Data </text><text x="70.3125" y="43.3125" font-family="Cascadia, Segoe UI Emoji" font-size="20px" fill="#1e1e1e" text-anchor="middle" style="white-space: pre;" direction="ltr" dominant-baseline="alphabetic">Inspection</text></g><g stroke-linecap="round" transform="translate(523.5555555555557 10) rotate(0 98.5 46.5)"><path d="M23.25 0 C57.18 0, 91.1 0, 173.75 0 M23.25 0 C64.19 0, 105.13 0, 173.75 0 M173.75 0 C189.25 0, 197 7.75, 197 23.25 M173.75 0 C189.25 0, 197 7.75, 197 23.25 M197 23.25 C197 37.41, 197 51.56, 197 69.75 M197 23.25 C197 36.24, 197 49.23, 197 69.75 M197 69.75 C197 85.25, 189.25 93, 173.75 93 M197 69.75 C197 85.25, 189.25 93, 173.75 93 M173.75 93 C124.07 93, 74.4 93, 23.25 93 M173.75 93 C117.53 93, 61.31 93, 23.25 93 M23.25 93 C7.75 93, 0 85.25, 0 69.75 M23.25 93 C7.75 93, 0 85.25, 0 69.75 M0 69.75 C0 57.61, 0 45.48, 0 23.25 M0 69.75 C0 59.82, 0 49.89, 0 23.25 M0 23.25 C0 7.75, 7.75 0, 23.25 0 M0 23.25 C0 7.75, 7.75 0, 23.25 0" stroke="#1e1e1e" stroke-width="2" fill="none"></path></g><g transform="translate(551.7430555555557 44.5) rotate(0 70.3125 12)"><text x="70.3125" y="19.3125" font-family="Cascadia, Segoe UI Emoji" font-size="20px" fill="#1e1e1e" text-anchor="middle" style="white-space: pre;" direction="ltr" dominant-baseline="alphabetic">Data Loading</text></g><g stroke-linecap="round" transform="translate(1488.4444444444448 12.666666666666686) rotate(0 98.5 46.5)"><path d="M23.25 0 C70.01 0, 116.77 0, 173.75 0 M23.25 0 C57.4 0, 91.56 0, 173.75 0 M173.75 0 C189.25 0, 197 7.75, 197 23.25 M173.75 0 C189.25 0, 197 7.75, 197 23.25 M197 23.25 C197 34.53, 197 45.8, 197 69.75 M197 23.25 C197 34.84, 197 46.42, 197 69.75 M197 69.75 C197 85.25, 189.25 93, 173.75 93 M197 69.75 C197 85.25, 189.25 93, 173.75 93 M173.75 93 C124.83 93, 75.91 93, 23.25 93 M173.75 93 C120.03 93, 66.32 93, 23.25 93 M23.25 93 C7.75 93, 0 85.25, 0 69.75 M23.25 93 C7.75 93, 0 85.25, 0 69.75 M0 69.75 C0 56.28, 0 42.81, 0 23.25 M0 69.75 C0 57.01, 0 44.27, 0 23.25 M0 23.25 C0 7.75, 7.75 0, 23.25 0 M0 23.25 C0 7.75, 7.75 0, 23.25 0" stroke="#1e1e1e" stroke-width="2" fill="none"></path></g><g transform="translate(1516.6319444444448 47.166666666666686) rotate(0 70.3125 12)"><text x="70.3125" y="19.3125" font-family="Cascadia, Segoe UI Emoji" font-size="20px" fill="#1e1e1e" text-anchor="middle" style="white-space: pre;" direction="ltr" dominant-baseline="alphabetic">Data Loading</text></g><g stroke-linecap="round" transform="translate(906.7777777777779 15.666666666666657) rotate(0 125.16666666666669 42.611111111111114)"><path d="M21.31 0 C100.41 0, 179.51 0, 229.03 0 M21.31 0 C83.98 0, 146.66 0, 229.03 0 M229.03 0 C243.23 0, 250.33 7.1, 250.33 21.31 M229.03 0 C243.23 0, 250.33 7.1, 250.33 21.31 M250.33 21.31 C250.33 36.74, 250.33 52.17, 250.33 63.92 M250.33 21.31 C250.33 29.84, 250.33 38.38, 250.33 63.92 M250.33 63.92 C250.33 78.12, 243.23 85.22, 229.03 85.22 M250.33 63.92 C250.33 78.12, 243.23 85.22, 229.03 85.22 M229.03 85.22 C163.32 85.22, 97.61 85.22, 21.31 85.22 M229.03 85.22 C171.36 85.22, 113.69 85.22, 21.31 85.22 M21.31 85.22 C7.1 85.22, 0 78.12, 0 63.92 M21.31 85.22 C7.1 85.22, 0 78.12, 0 63.92 M0 63.92 C0 54.44, 0 44.97, 0 21.31 M0 63.92 C0 53.39, 0 42.85, 0 21.31 M0 21.31 C0 7.1, 7.1 0, 21.31 0 M0 21.31 C0 7.1, 7.1 0, 21.31 0" stroke="#1e1e1e" stroke-width="2" fill="none"></path></g><g transform="translate(926.4756944444446 34.27777777777777) rotate(0 105.46875 24)"><text x="105.46875" y="19.3125" font-family="Cascadia, Segoe UI Emoji" font-size="20px" fill="#1e1e1e" text-anchor="middle" style="white-space: pre;" direction="ltr" dominant-baseline="alphabetic">Single-value IC </text><text x="105.46875" y="43.3125" font-family="Cascadia, Segoe UI Emoji" font-size="20px" fill="#1e1e1e" text-anchor="middle" style="white-space: pre;" direction="ltr" dominant-baseline="alphabetic">violation checking</text></g><g stroke-linecap="round" transform="translate(10 224.33333333333331) rotate(0 162.4444444444445 111)"><path d="M0 0 C123.17 0, 246.35 0, 324.89 0 M324.89 0 C324.89 61.64, 324.89 123.28, 324.89 222 M324.89 222 C239.64 222, 154.4 222, 0 222 M0 222 C0 149.46, 0 76.92, 0 0" stroke="#1e1e1e" stroke-width="2.5" fill="none" stroke-dasharray="1.5 8"></path></g><g transform="translate(15 229.7333333333333) rotate(0 131.25 105.59999999999997)"><text x="0" y="15.45" font-family="Cascadia, Segoe UI Emoji" font-size="16px" fill="#1e1e1e" text-anchor="start" style="white-space: pre;" direction="ltr" dominant-baseline="alphabetic">Process:</text><text x="0" y="34.65" font-family="Cascadia, Segoe UI Emoji" font-size="16px" fill="#1e1e1e" text-anchor="start" style="white-space: pre;" direction="ltr" dominant-baseline="alphabetic"></text><text x="0" y="53.849999999999994" font-family="Cascadia, Segoe UI Emoji" font-size="16px" fill="#1e1e1e" text-anchor="start" style="white-space: pre;" direction="ltr" dominant-baseline="alphabetic">- Load CSV files into SQLite</text><text x="0" y="73.05" font-family="Cascadia, Segoe UI Emoji" font-size="16px" fill="#1e1e1e" text-anchor="start" style="white-space: pre;" direction="ltr" dominant-baseline="alphabetic">- Manually inspect structure</text><text x="0" y="92.25" font-family="Cascadia, Segoe UI Emoji" font-size="16px" fill="#1e1e1e" text-anchor="start" style="white-space: pre;" direction="ltr" dominant-baseline="alphabetic">- Look for obvious ICs and </text><text x="0" y="111.45" font-family="Cascadia, Segoe UI Emoji" font-size="16px" fill="#1e1e1e" text-anchor="start" style="white-space: pre;" direction="ltr" dominant-baseline="alphabetic">violations</text><text x="0" y="130.64999999999998" font-family="Cascadia, Segoe UI Emoji" font-size="16px" fill="#1e1e1e" text-anchor="start" style="white-space: pre;" direction="ltr" dominant-baseline="alphabetic"></text><text x="0" y="149.85" font-family="Cascadia, Segoe UI Emoji" font-size="16px" fill="#1e1e1e" text-anchor="start" style="white-space: pre;" direction="ltr" dominant-baseline="alphabetic">Tools:</text><text x="0" y="169.04999999999998" font-family="Cascadia, Segoe UI Emoji" font-size="16px" fill="#1e1e1e" text-anchor="start" style="white-space: pre;" direction="ltr" dominant-baseline="alphabetic"></text><text x="0" y="188.24999999999997" font-family="Cascadia, Segoe UI Emoji" font-size="16px" fill="#1e1e1e" text-anchor="start" style="white-space: pre;" direction="ltr" dominant-baseline="alphabetic">- Text editors</text><text x="0" y="207.45" font-family="Cascadia, Segoe UI Emoji" font-size="16px" fill="#1e1e1e" text-anchor="start" style="white-space: pre;" direction="ltr" dominant-baseline="alphabetic">- DB Browser for SQLite</text></g><g stroke-linecap="round"><g transform="translate(168.69155438222998 111.88888888888891) rotate(0 -0.0024120613182638806 50.55555555555554)"><path d="M0 0 C0 31.02, 0 62.03, 0 101.11 M0 0 C0 39.01, 0 78.01, 0 101.11" stroke="#1e1e1e" stroke-width="2" fill="none"></path></g><g transform="translate(168.69155438222998 111.88888888888891) rotate(0 -0.0024120613182638806 50.55555555555554)"><path d="M-8.55 77.62 C-5.93 84.82, -3.31 92.03, 0 101.11 M-8.55 77.62 C-5.26 86.68, -1.96 95.74, 0 101.11" stroke="#1e1e1e" stroke-width="2" fill="none"></path></g><g transform="translate(168.69155438222998 111.88888888888891) rotate(0 -0.0024120613182638806 50.55555555555554)"><path d="M8.55 77.62 C5.92 84.83, 3.3 92.03, 0 101.11 M8.55 77.62 C5.25 86.68, 1.95 95.74, 0 101.11" stroke="#1e1e1e" stroke-width="2" fill="none"></path></g></g><mask></mask><g stroke-linecap="round" transform="translate(456.1666666666665 222.5000000000001) rotate(0 181.33333333333331 114.44444444444443)"><path d="M0 0 C125.58 0, 251.16 0, 362.67 0 M362.67 0 C362.67 88.38, 362.67 176.75, 362.67 228.89 M362.67 228.89 C222.4 228.89, 82.13 228.89, 0 228.89 M0 228.89 C0 152.96, 0 77.02, 0 0" stroke="#1e1e1e" stroke-width="2.5" fill="none" stroke-dasharray="1.5 8"></path></g><g transform="translate(461.1666666666665 240.9444444444445) rotate(0 159.375 96)"><text x="0" y="15.45" font-family="Cascadia, Segoe UI Emoji" font-size="16px" fill="#1e1e1e" text-anchor="start" style="white-space: pre;" direction="ltr" dominant-baseline="alphabetic">Process:</text><text x="0" y="34.65" font-family="Cascadia, Segoe UI Emoji" font-size="16px" fill="#1e1e1e" text-anchor="start" style="white-space: pre;" direction="ltr" dominant-baseline="alphabetic"></text><text x="0" y="53.849999999999994" font-family="Cascadia, Segoe UI Emoji" font-size="16px" fill="#1e1e1e" text-anchor="start" style="white-space: pre;" direction="ltr" dominant-baseline="alphabetic">- Load files from disk into memory</text><text x="0" y="73.05" font-family="Cascadia, Segoe UI Emoji" font-size="16px" fill="#1e1e1e" text-anchor="start" style="white-space: pre;" direction="ltr" dominant-baseline="alphabetic">- Send from memory into OpenRefine</text><text x="0" y="92.25" font-family="Cascadia, Segoe UI Emoji" font-size="16px" fill="#1e1e1e" text-anchor="start" style="white-space: pre;" direction="ltr" dominant-baseline="alphabetic"></text><text x="0" y="111.45" font-family="Cascadia, Segoe UI Emoji" font-size="16px" fill="#1e1e1e" text-anchor="start" style="white-space: pre;" direction="ltr" dominant-baseline="alphabetic">Tools:</text><text x="0" y="130.64999999999998" font-family="Cascadia, Segoe UI Emoji" font-size="16px" fill="#1e1e1e" text-anchor="start" style="white-space: pre;" direction="ltr" dominant-baseline="alphabetic"></text><text x="0" y="149.85" font-family="Cascadia, Segoe UI Emoji" font-size="16px" fill="#1e1e1e" text-anchor="start" style="white-space: pre;" direction="ltr" dominant-baseline="alphabetic">- Python</text><text x="0" y="169.04999999999998" font-family="Cascadia, Segoe UI Emoji" font-size="16px" fill="#1e1e1e" text-anchor="start" style="white-space: pre;" direction="ltr" dominant-baseline="alphabetic">- Home-grown OpenRefine client</text><text x="0" y="188.24999999999997" font-family="Cascadia, Segoe UI Emoji" font-size="16px" fill="#1e1e1e" text-anchor="start" style="white-space: pre;" direction="ltr" dominant-baseline="alphabetic">- OpenRefine server</text></g><g stroke-linecap="round"><g transform="translate(632.8587217599537 117.44444444444446) rotate(0 0 41.111111111111114)"><path d="M0 0 C0 32.2, 0 64.4, 0 82.22 M0 0 C0 18.48, 0 36.97, 0 82.22" stroke="#1e1e1e" stroke-width="2" fill="none"></path></g><g transform="translate(632.8587217599537 117.44444444444446) rotate(0 0 41.111111111111114)"><path d="M-8.55 58.73 C-5.2 67.93, -1.85 77.13, 0 82.22 M-8.55 58.73 C-6.63 64.01, -4.71 69.29, 0 82.22" stroke="#1e1e1e" stroke-width="2" fill="none"></path></g><g transform="translate(632.8587217599537 117.44444444444446) rotate(0 0 41.111111111111114)"><path d="M8.55 58.73 C5.2 67.93, 1.85 77.13, 0 82.22 M8.55 58.73 C6.63 64.01, 4.71 69.29, 0 82.22" stroke="#1e1e1e" stroke-width="2" fill="none"></path></g></g><mask></mask><g stroke-linecap="round" transform="translate(862.8333333333338 226.33333333333337) rotate(0 221.33333333333326 139.49999999999997)"><path d="M0 0 C147.4 0, 294.79 0, 442.67 0 M442.67 0 C442.67 83.12, 442.67 166.23, 442.67 279 M442.67 279 C317.46 279, 192.25 279, 0 279 M0 279 C0 208.12, 0 137.23, 0 0" stroke="#1e1e1e" stroke-width="2.5" fill="none" stroke-dasharray="1.5 8"></path></g><g transform="translate(867.8333333333338 241.03333333333336) rotate(0 201.5625 124.80000000000001)"><text x="0" y="15.45" font-family="Cascadia, Segoe UI Emoji" font-size="16px" fill="#1e1e1e" text-anchor="start" style="white-space: pre;" direction="ltr" dominant-baseline="alphabetic">Process:</text><text x="0" y="34.65" font-family="Cascadia, Segoe UI Emoji" font-size="16px" fill="#1e1e1e" text-anchor="start" style="white-space: pre;" direction="ltr" dominant-baseline="alphabetic"></text><text x="0" y="53.849999999999994" font-family="Cascadia, Segoe UI Emoji" font-size="16px" fill="#1e1e1e" text-anchor="start" style="white-space: pre;" direction="ltr" dominant-baseline="alphabetic">- Run suite of GREL queries to find single-</text><text x="0" y="73.05" font-family="Cascadia, Segoe UI Emoji" font-size="16px" fill="#1e1e1e" text-anchor="start" style="white-space: pre;" direction="ltr" dominant-baseline="alphabetic">value (i.e. not foreign-key or other </text><text x="0" y="92.25" font-family="Cascadia, Segoe UI Emoji" font-size="16px" fill="#1e1e1e" text-anchor="start" style="white-space: pre;" direction="ltr" dominant-baseline="alphabetic">relational) IC violations</text><text x="0" y="111.45" font-family="Cascadia, Segoe UI Emoji" font-size="16px" fill="#1e1e1e" text-anchor="start" style="white-space: pre;" direction="ltr" dominant-baseline="alphabetic">- Update fields with aforementioned IC </text><text x="0" y="130.64999999999998" font-family="Cascadia, Segoe UI Emoji" font-size="16px" fill="#1e1e1e" text-anchor="start" style="white-space: pre;" direction="ltr" dominant-baseline="alphabetic">violations according to policy</text><text x="0" y="149.85" font-family="Cascadia, Segoe UI Emoji" font-size="16px" fill="#1e1e1e" text-anchor="start" style="white-space: pre;" direction="ltr" dominant-baseline="alphabetic"></text><text x="0" y="169.04999999999998" font-family="Cascadia, Segoe UI Emoji" font-size="16px" fill="#1e1e1e" text-anchor="start" style="white-space: pre;" direction="ltr" dominant-baseline="alphabetic">Tools:</text><text x="0" y="188.24999999999997" font-family="Cascadia, Segoe UI Emoji" font-size="16px" fill="#1e1e1e" text-anchor="start" style="white-space: pre;" direction="ltr" dominant-baseline="alphabetic"></text><text x="0" y="207.45" font-family="Cascadia, Segoe UI Emoji" font-size="16px" fill="#1e1e1e" text-anchor="start" style="white-space: pre;" direction="ltr" dominant-baseline="alphabetic">- Python</text><text x="0" y="226.64999999999998" font-family="Cascadia, Segoe UI Emoji" font-size="16px" fill="#1e1e1e" text-anchor="start" style="white-space: pre;" direction="ltr" dominant-baseline="alphabetic">- Home-grown OpenRefine client</text><text x="0" y="245.84999999999997" font-family="Cascadia, Segoe UI Emoji" font-size="16px" fill="#1e1e1e" text-anchor="start" style="white-space: pre;" direction="ltr" dominant-baseline="alphabetic">- OpenRefine server</text></g><g stroke-linecap="round"><g transform="translate(1046.7845142011324 115.7777777777778) rotate(0 0.2672373515690083 44.444444444444386)"><path d="M0 0 C0.19 31.16, 0.37 62.32, 0.53 88.89 M0 0 C0.11 17.87, 0.21 35.73, 0.53 88.89" stroke="#1e1e1e" stroke-width="2" fill="none"></path></g><g transform="translate(1046.7845142011324 115.7777777777778) rotate(0 0.2672373515690083 44.444444444444386)"><path d="M-8.16 65.45 C-5.11 73.66, -2.06 81.88, 0.53 88.89 M-8.16 65.45 C-6.41 70.16, -4.66 74.87, 0.53 88.89" stroke="#1e1e1e" stroke-width="2" fill="none"></path></g><g transform="translate(1046.7845142011324 115.7777777777778) rotate(0 0.2672373515690083 44.444444444444386)"><path d="M8.94 65.35 C6 73.6, 3.05 81.85, 0.53 88.89 M8.94 65.35 C7.25 70.08, 5.56 74.81, 0.53 88.89" stroke="#1e1e1e" stroke-width="2" fill="none"></path></g></g><mask></mask><g stroke-linecap="round"><g transform="translate(268.6111111111112 60.39035153284394) rotate(0 119.4444444444444 -0.2883912292797248)"><path d="M0 0 C68.09 -0.16, 136.19 -0.33, 238.89 -0.58 M0 0 C57.54 -0.14, 115.08 -0.28, 238.89 -0.58" stroke="#1e1e1e" stroke-width="2" fill="none"></path></g><g transform="translate(268.6111111111112 60.39035153284394) rotate(0 119.4444444444444 -0.2883912292797248)"><path d="M215.42 8.03 C222.11 5.58, 228.8 3.12, 238.89 -0.58 M215.42 8.03 C221.07 5.96, 226.72 3.88, 238.89 -0.58" stroke="#1e1e1e" stroke-width="2" fill="none"></path></g><g transform="translate(268.6111111111112 60.39035153284394) rotate(0 119.4444444444444 -0.2883912292797248)"><path d="M215.38 -9.07 C222.08 -6.65, 228.78 -4.23, 238.89 -0.58 M215.38 -9.07 C221.04 -7.02, 226.7 -4.98, 238.89 -0.58" stroke="#1e1e1e" stroke-width="2" fill="none"></path></g></g><mask></mask><g stroke-linecap="round"><g transform="translate(730.8333333333335 52.97328339455467) rotate(0 81.6666666666668 0.8943406933845779)"><path d="M0 0 C39.06 0.43, 78.12 0.86, 163.33 1.79 M0 0 C56.8 0.62, 113.6 1.24, 163.33 1.79" stroke="#1e1e1e" stroke-width="2" fill="none"></path></g><g transform="translate(730.8333333333335 52.97328339455467) rotate(0 81.6666666666668 0.8943406933845779)"><path d="M139.75 10.08 C145.39 8.1, 151.03 6.12, 163.33 1.79 M139.75 10.08 C147.95 7.2, 156.15 4.31, 163.33 1.79" stroke="#1e1e1e" stroke-width="2" fill="none"></path></g><g transform="translate(730.8333333333335 52.97328339455467) rotate(0 81.6666666666668 0.8943406933845779)"><path d="M139.94 -7.02 C145.53 -4.91, 151.13 -2.81, 163.33 1.79 M139.94 -7.02 C148.07 -3.96, 156.21 -0.89, 163.33 1.79" stroke="#1e1e1e" stroke-width="2" fill="none"></path></g></g><mask></mask><g stroke-linecap="round" transform="translate(1368.3888888888891 226.83333333333314) rotate(0 221.33333333333326 129.99999999999997)"><path d="M0 0 C158.1 0, 316.21 0, 442.67 0 M442.67 0 C442.67 57.61, 442.67 115.23, 442.67 260 M442.67 260 C348.89 260, 255.11 260, 0 260 M0 260 C0 189.34, 0 118.69, 0 0" stroke="#1e1e1e" stroke-width="2.5" fill="none" stroke-dasharray="1.5 8"></path></g><g transform="translate(1373.3888888888891 241.63333333333316) rotate(0 182.8125 115.19999999999999)"><text x="0" y="15.45" font-family="Cascadia, Segoe UI Emoji" font-size="16px" fill="#1e1e1e" text-anchor="start" style="white-space: pre;" direction="ltr" dominant-baseline="alphabetic">Process:</text><text x="0" y="34.65" font-family="Cascadia, Segoe UI Emoji" font-size="16px" fill="#1e1e1e" text-anchor="start" style="white-space: pre;" direction="ltr" dominant-baseline="alphabetic"></text><text x="0" y="53.849999999999994" font-family="Cascadia, Segoe UI Emoji" font-size="16px" fill="#1e1e1e" text-anchor="start" style="white-space: pre;" direction="ltr" dominant-baseline="alphabetic">- Export data from OpenRefine</text><text x="0" y="73.05" font-family="Cascadia, Segoe UI Emoji" font-size="16px" fill="#1e1e1e" text-anchor="start" style="white-space: pre;" direction="ltr" dominant-baseline="alphabetic">- Create representative SQLite tables</text><text x="0" y="92.25" font-family="Cascadia, Segoe UI Emoji" font-size="16px" fill="#1e1e1e" text-anchor="start" style="white-space: pre;" direction="ltr" dominant-baseline="alphabetic">- Load exported data into SQLite tables</text><text x="0" y="111.45" font-family="Cascadia, Segoe UI Emoji" font-size="16px" fill="#1e1e1e" text-anchor="start" style="white-space: pre;" direction="ltr" dominant-baseline="alphabetic"></text><text x="0" y="130.64999999999998" font-family="Cascadia, Segoe UI Emoji" font-size="16px" fill="#1e1e1e" text-anchor="start" style="white-space: pre;" direction="ltr" dominant-baseline="alphabetic">Tools:</text><text x="0" y="149.85" font-family="Cascadia, Segoe UI Emoji" font-size="16px" fill="#1e1e1e" text-anchor="start" style="white-space: pre;" direction="ltr" dominant-baseline="alphabetic"></text><text x="0" y="169.04999999999998" font-family="Cascadia, Segoe UI Emoji" font-size="16px" fill="#1e1e1e" text-anchor="start" style="white-space: pre;" direction="ltr" dominant-baseline="alphabetic">- Python</text><text x="0" y="188.24999999999997" font-family="Cascadia, Segoe UI Emoji" font-size="16px" fill="#1e1e1e" text-anchor="start" style="white-space: pre;" direction="ltr" dominant-baseline="alphabetic">- Home-grown OpenRefine client</text><text x="0" y="207.45" font-family="Cascadia, Segoe UI Emoji" font-size="16px" fill="#1e1e1e" text-anchor="start" style="white-space: pre;" direction="ltr" dominant-baseline="alphabetic">- OpenRefine server</text><text x="0" y="226.64999999999998" font-family="Cascadia, Segoe UI Emoji" font-size="16px" fill="#1e1e1e" text-anchor="start" style="white-space: pre;" direction="ltr" dominant-baseline="alphabetic">- SQLite</text></g><g stroke-linecap="round"><g transform="translate(1587.398552215172 116.33333333333348) rotate(0 1.2352699237713978 49.99999999999994)"><path d="M0 0 C0.83 33.46, 1.65 66.93, 2.47 100 M0 0 C0.88 35.49, 1.75 70.98, 2.47 100" stroke="#1e1e1e" stroke-width="2" fill="none"></path></g><g transform="translate(1587.398552215172 116.33333333333348) rotate(0 1.2352699237713978 49.99999999999994)"><path d="M-6.66 76.73 C-3.6 84.51, -0.55 92.3, 2.47 100 M-6.66 76.73 C-3.42 84.99, -0.18 93.25, 2.47 100" stroke="#1e1e1e" stroke-width="2" fill="none"></path></g><g transform="translate(1587.398552215172 116.33333333333348) rotate(0 1.2352699237713978 49.99999999999994)"><path d="M10.44 76.3 C7.77 84.23, 5.11 92.16, 2.47 100 M10.44 76.3 C7.61 84.71, 4.78 93.12, 2.47 100" stroke="#1e1e1e" stroke-width="2" fill="none"></path></g></g><mask></mask><g stroke-linecap="round"><g transform="translate(1173.0834846283287 57.44444444444457) rotate(0 148.87492435250226 0)"><path d="M0 0 C97.7 0, 195.39 0, 297.75 0 M0 0 C85.63 0, 171.26 0, 297.75 0" stroke="#1e1e1e" stroke-width="2" fill="none"></path></g><g transform="translate(1173.0834846283287 57.44444444444457) rotate(0 148.87492435250226 0)"><path d="M274.26 8.55 C281.97 5.74, 289.67 2.94, 297.75 0 M274.26 8.55 C281.01 6.09, 287.77 3.63, 297.75 0" stroke="#1e1e1e" stroke-width="2" fill="none"></path></g><g transform="translate(1173.0834846283287 57.44444444444457) rotate(0 148.87492435250226 0)"><path d="M274.26 -8.55 C281.97 -5.74, 289.67 -2.94, 297.75 0 M274.26 -8.55 C281.01 -6.09, 287.77 -3.63, 297.75 0" stroke="#1e1e1e" stroke-width="2" fill="none"></path></g></g><mask></mask><g stroke-linecap="round" transform="translate(2004.555555555556 13.166666666666742) rotate(0 136.83333333333314 46.5)"><path d="M23.25 0 C82.42 0, 141.6 0, 250.42 0 M23.25 0 C69.7 0, 116.14 0, 250.42 0 M250.42 0 C265.92 0, 273.67 7.75, 273.67 23.25 M250.42 0 C265.92 0, 273.67 7.75, 273.67 23.25 M273.67 23.25 C273.67 40.89, 273.67 58.54, 273.67 69.75 M273.67 23.25 C273.67 37.54, 273.67 51.83, 273.67 69.75 M273.67 69.75 C273.67 85.25, 265.92 93, 250.42 93 M273.67 69.75 C273.67 85.25, 265.92 93, 250.42 93 M250.42 93 C181.29 93, 112.16 93, 23.25 93 M250.42 93 C177.49 93, 104.57 93, 23.25 93 M23.25 93 C7.75 93, 0 85.25, 0 69.75 M23.25 93 C7.75 93, 0 85.25, 0 69.75 M0 69.75 C0 56.99, 0 44.22, 0 23.25 M0 69.75 C0 54.88, 0 40.02, 0 23.25 M0 23.25 C0 7.75, 7.75 0, 23.25 0 M0 23.25 C0 7.75, 7.75 0, 23.25 0" stroke="#1e1e1e" stroke-width="2" fill="none"></path></g><g transform="translate(2035.9201388888891 35.66666666666674) rotate(0 105.46875 24)"><text x="105.46875" y="19.3125" font-family="Cascadia, Segoe UI Emoji" font-size="20px" fill="#1e1e1e" text-anchor="middle" style="white-space: pre;" direction="ltr" dominant-baseline="alphabetic">Foreign-key IC </text><text x="105.46875" y="43.3125" font-family="Cascadia, Segoe UI Emoji" font-size="20px" fill="#1e1e1e" text-anchor="middle" style="white-space: pre;" direction="ltr" dominant-baseline="alphabetic">violation checking</text></g><g stroke-linecap="round" transform="translate(1926.1666666666665 226.33333333333337) rotate(0 221.33333333333326 148.99999999999997)"><path d="M0 0 C125.33 0, 250.65 0, 442.67 0 M442.67 0 C442.67 99.67, 442.67 199.34, 442.67 298 M442.67 298 C333.91 298, 225.16 298, 0 298 M0 298 C0 215.23, 0 132.45, 0 0" stroke="#1e1e1e" stroke-width="2.5" fill="none" stroke-dasharray="1.5 8"></path></g><g transform="translate(1931.1666666666665 231.33333333333337) rotate(0 210.9375 143.99999999999997)"><text x="0" y="15.45" font-family="Cascadia, Segoe UI Emoji" font-size="16px" fill="#1e1e1e" text-anchor="start" style="white-space: pre;" direction="ltr" dominant-baseline="alphabetic">Process:</text><text x="0" y="34.65" font-family="Cascadia, Segoe UI Emoji" font-size="16px" fill="#1e1e1e" text-anchor="start" style="white-space: pre;" direction="ltr" dominant-baseline="alphabetic"></text><text x="0" y="53.849999999999994" font-family="Cascadia, Segoe UI Emoji" font-size="16px" fill="#1e1e1e" text-anchor="start" style="white-space: pre;" direction="ltr" dominant-baseline="alphabetic">- Create SQLite views to analyze foreign key </text><text x="0" y="73.05" font-family="Cascadia, Segoe UI Emoji" font-size="16px" fill="#1e1e1e" text-anchor="start" style="white-space: pre;" direction="ltr" dominant-baseline="alphabetic">(FK) relationships</text><text x="0" y="92.25" font-family="Cascadia, Segoe UI Emoji" font-size="16px" fill="#1e1e1e" text-anchor="start" style="white-space: pre;" direction="ltr" dominant-baseline="alphabetic">- Identify foreign-key IC violations</text><text x="0" y="111.45" font-family="Cascadia, Segoe UI Emoji" font-size="16px" fill="#1e1e1e" text-anchor="start" style="white-space: pre;" direction="ltr" dominant-baseline="alphabetic">- Fix IC violations according to policy</text><text x="0" y="130.64999999999998" font-family="Cascadia, Segoe UI Emoji" font-size="16px" fill="#1e1e1e" text-anchor="start" style="white-space: pre;" direction="ltr" dominant-baseline="alphabetic">- Write results into cleaned entity tables </text><text x="0" y="149.85" font-family="Cascadia, Segoe UI Emoji" font-size="16px" fill="#1e1e1e" text-anchor="start" style="white-space: pre;" direction="ltr" dominant-baseline="alphabetic">(e.g. 'menu_orig' -&gt; 'menu')</text><text x="0" y="169.04999999999998" font-family="Cascadia, Segoe UI Emoji" font-size="16px" fill="#1e1e1e" text-anchor="start" style="white-space: pre;" direction="ltr" dominant-baseline="alphabetic"></text><text x="0" y="188.24999999999997" font-family="Cascadia, Segoe UI Emoji" font-size="16px" fill="#1e1e1e" text-anchor="start" style="white-space: pre;" direction="ltr" dominant-baseline="alphabetic">Tools:</text><text x="0" y="207.45" font-family="Cascadia, Segoe UI Emoji" font-size="16px" fill="#1e1e1e" text-anchor="start" style="white-space: pre;" direction="ltr" dominant-baseline="alphabetic"></text><text x="0" y="226.64999999999998" font-family="Cascadia, Segoe UI Emoji" font-size="16px" fill="#1e1e1e" text-anchor="start" style="white-space: pre;" direction="ltr" dominant-baseline="alphabetic">- Python</text><text x="0" y="245.84999999999997" font-family="Cascadia, Segoe UI Emoji" font-size="16px" fill="#1e1e1e" text-anchor="start" style="white-space: pre;" direction="ltr" dominant-baseline="alphabetic">- Home-grown OpenRefine client</text><text x="0" y="265.05" font-family="Cascadia, Segoe UI Emoji" font-size="16px" fill="#1e1e1e" text-anchor="start" style="white-space: pre;" direction="ltr" dominant-baseline="alphabetic">- OpenRefine server</text><text x="0" y="284.25" font-family="Cascadia, Segoe UI Emoji" font-size="16px" fill="#1e1e1e" text-anchor="start" style="white-space: pre;" direction="ltr" dominant-baseline="alphabetic">- SQLite</text></g><g stroke-linecap="round"><g transform="translate(2128.743857866288 121.88888888888903) rotate(0 0 39.44444444444437)"><path d="M0 0 C0 16.81, 0 33.62, 0 78.89 M0 0 C0 21.81, 0 43.61, 0 78.89" stroke="#1e1e1e" stroke-width="2" fill="none"></path></g><g transform="translate(2128.743857866288 121.88888888888903) rotate(0 0 39.44444444444437)"><path d="M-8.55 55.4 C-6.73 60.4, -4.91 65.41, 0 78.89 M-8.55 55.4 C-6.19 61.89, -3.82 68.38, 0 78.89" stroke="#1e1e1e" stroke-width="2" fill="none"></path></g><g transform="translate(2128.743857866288 121.88888888888903) rotate(0 0 39.44444444444437)"><path d="M8.55 55.4 C6.73 60.4, 4.91 65.41, 0 78.89 M8.55 55.4 C6.19 61.89, 3.82 68.38, 0 78.89" stroke="#1e1e1e" stroke-width="2" fill="none"></path></g></g><mask></mask><g stroke-linecap="round"><g transform="translate(1694.5980634095622 64.64887485291183) rotate(0 146.45096829521924 -0.528864422122922)"><path d="M0 0 C62.88 -0.23, 125.76 -0.45, 292.9 -1.06 M0 0 C92.14 -0.33, 184.29 -0.67, 292.9 -1.06" stroke="#1e1e1e" stroke-width="2" fill="none"></path></g><g transform="translate(1694.5980634095622 64.64887485291183) rotate(0 146.45096829521924 -0.528864422122922)"><path d="M269.44 7.58 C274.48 5.72, 279.51 3.87, 292.9 -1.06 M269.44 7.58 C276.82 4.86, 284.2 2.14, 292.9 -1.06" stroke="#1e1e1e" stroke-width="2" fill="none"></path></g><g transform="translate(1694.5980634095622 64.64887485291183) rotate(0 146.45096829521924 -0.528864422122922)"><path d="M269.38 -9.52 C274.43 -7.71, 279.48 -5.89, 292.9 -1.06 M269.38 -9.52 C276.78 -6.86, 284.18 -4.2, 292.9 -1.06" stroke="#1e1e1e" stroke-width="2" fill="none"></path></g></g><mask></mask><g stroke-linecap="round" transform="translate(2621.222222222222 11.8611111111112) rotate(0 136.83333333333326 46.5)"><path d="M23.25 0 C81.09 0, 138.93 0, 250.42 0 M23.25 0 C100.78 0, 178.31 0, 250.42 0 M250.42 0 C265.92 0, 273.67 7.75, 273.67 23.25 M250.42 0 C265.92 0, 273.67 7.75, 273.67 23.25 M273.67 23.25 C273.67 37.79, 273.67 52.34, 273.67 69.75 M273.67 23.25 C273.67 34.71, 273.67 46.18, 273.67 69.75 M273.67 69.75 C273.67 85.25, 265.92 93, 250.42 93 M273.67 69.75 C273.67 85.25, 265.92 93, 250.42 93 M250.42 93 C195.29 93, 140.17 93, 23.25 93 M250.42 93 C202.27 93, 154.13 93, 23.25 93 M23.25 93 C7.75 93, 0 85.25, 0 69.75 M23.25 93 C7.75 93, 0 85.25, 0 69.75 M0 69.75 C0 54.34, 0 38.93, 0 23.25 M0 69.75 C0 55.73, 0 41.7, 0 23.25 M0 23.25 C0 7.75, 7.75 0, 23.25 0 M0 23.25 C0 7.75, 7.75 0, 23.25 0" stroke="#1e1e1e" stroke-width="2" fill="none"></path></g><g transform="translate(2676.024305555555 46.3611111111112) rotate(0 82.03125 12)"><text x="82.03125" y="19.3125" font-family="Cascadia, Segoe UI Emoji" font-size="20px" fill="#1e1e1e" text-anchor="middle" style="white-space: pre;" direction="ltr" dominant-baseline="alphabetic">Data exporting</text></g><g stroke-linecap="round" transform="translate(2542.8333333333326 225.02777777777783) rotate(0 221.33333333333326 149.00000000000003)"><path d="M0 0 C118.61 0, 237.23 0, 442.67 0 M442.67 0 C442.67 109.99, 442.67 219.98, 442.67 298 M442.67 298 C267.46 298, 92.25 298, 0 298 M0 298 C0 210.27, 0 122.53, 0 0" stroke="#1e1e1e" stroke-width="2.5" fill="none" stroke-dasharray="1.5 8"></path></g><g transform="translate(2547.8333333333326 230.02777777777783) rotate(0 215.625 144.00000000000003)"><text x="0" y="15.45" font-family="Cascadia, Segoe UI Emoji" font-size="16px" fill="#1e1e1e" text-anchor="start" style="white-space: pre;" direction="ltr" dominant-baseline="alphabetic">Process:</text><text x="0" y="34.65" font-family="Cascadia, Segoe UI Emoji" font-size="16px" fill="#1e1e1e" text-anchor="start" style="white-space: pre;" direction="ltr" dominant-baseline="alphabetic"></text><text x="0" y="53.849999999999994" font-family="Cascadia, Segoe UI Emoji" font-size="16px" fill="#1e1e1e" text-anchor="start" style="white-space: pre;" direction="ltr" dominant-baseline="alphabetic">- Query all rows in all cleaned tables (i.e. </text><text x="0" y="73.05" font-family="Cascadia, Segoe UI Emoji" font-size="16px" fill="#1e1e1e" text-anchor="start" style="white-space: pre;" direction="ltr" dominant-baseline="alphabetic">'menu')</text><text x="0" y="92.25" font-family="Cascadia, Segoe UI Emoji" font-size="16px" fill="#1e1e1e" text-anchor="start" style="white-space: pre;" direction="ltr" dominant-baseline="alphabetic">- Read query results into Pandas DataFrames</text><text x="0" y="111.45" font-family="Cascadia, Segoe UI Emoji" font-size="16px" fill="#1e1e1e" text-anchor="start" style="white-space: pre;" direction="ltr" dominant-baseline="alphabetic">- Output each table's DataFrame contents into </text><text x="0" y="130.64999999999998" font-family="Cascadia, Segoe UI Emoji" font-size="16px" fill="#1e1e1e" text-anchor="start" style="white-space: pre;" direction="ltr" dominant-baseline="alphabetic">its own CSV file (i.e. Menu.export.csv) </text><text x="0" y="149.85" font-family="Cascadia, Segoe UI Emoji" font-size="16px" fill="#1e1e1e" text-anchor="start" style="white-space: pre;" direction="ltr" dominant-baseline="alphabetic"></text><text x="0" y="169.04999999999998" font-family="Cascadia, Segoe UI Emoji" font-size="16px" fill="#1e1e1e" text-anchor="start" style="white-space: pre;" direction="ltr" dominant-baseline="alphabetic">Tools:</text><text x="0" y="188.24999999999997" font-family="Cascadia, Segoe UI Emoji" font-size="16px" fill="#1e1e1e" text-anchor="start" style="white-space: pre;" direction="ltr" dominant-baseline="alphabetic"></text><text x="0" y="207.45" font-family="Cascadia, Segoe UI Emoji" font-size="16px" fill="#1e1e1e" text-anchor="start" style="white-space: pre;" direction="ltr" dominant-baseline="alphabetic">- Python</text><text x="0" y="226.64999999999998" font-family="Cascadia, Segoe UI Emoji" font-size="16px" fill="#1e1e1e" text-anchor="start" style="white-space: pre;" direction="ltr" dominant-baseline="alphabetic">- Home-grown OpenRefine client</text><text x="0" y="245.84999999999997" font-family="Cascadia, Segoe UI Emoji" font-size="16px" fill="#1e1e1e" text-anchor="start" style="white-space: pre;" direction="ltr" dominant-baseline="alphabetic">- OpenRefine server</text><text x="0" y="265.05" font-family="Cascadia, Segoe UI Emoji" font-size="16px" fill="#1e1e1e" text-anchor="start" style="white-space: pre;" direction="ltr" dominant-baseline="alphabetic">- SQLite</text><text x="0" y="284.25" font-family="Cascadia, Segoe UI Emoji" font-size="16px" fill="#1e1e1e" text-anchor="start" style="white-space: pre;" direction="ltr" dominant-baseline="alphabetic">- Pandas</text></g><g stroke-linecap="round"><g transform="translate(2291.9444444444434 58.000000000000114) rotate(0 158.88888888888914 0)"><path d="M0 0 C90.49 0, 180.99 0, 317.78 0 M0 0 C84.83 0, 169.66 0, 317.78 0" stroke="#1e1e1e" stroke-width="2" fill="none"></path></g><g transform="translate(2291.9444444444434 58.000000000000114) rotate(0 158.88888888888914 0)"><path d="M294.29 8.55 C300.98 6.12, 307.67 3.68, 317.78 0 M294.29 8.55 C300.56 6.27, 306.83 3.99, 317.78 0" stroke="#1e1e1e" stroke-width="2" fill="none"></path></g><g transform="translate(2291.9444444444434 58.000000000000114) rotate(0 158.88888888888914 0)"><path d="M294.29 -8.55 C300.98 -6.12, 307.67 -3.68, 317.78 0 M294.29 -8.55 C300.56 -6.27, 306.83 -3.99, 317.78 0" stroke="#1e1e1e" stroke-width="2" fill="none"></path></g></g><mask></mask><g stroke-linecap="round"><g transform="translate(2755.2777777777774 117.4444444444444) rotate(0 0 41.666666666666686)"><path d="M0 0 C0 20.03, 0 40.07, 0 83.33 M0 0 C0 26.28, 0 52.56, 0 83.33" stroke="#1e1e1e" stroke-width="2" fill="none"></path></g><g transform="translate(2755.2777777777774 117.4444444444444) rotate(0 0 41.666666666666686)"><path d="M-8.55 59.84 C-6.49 65.49, -4.44 71.14, 0 83.33 M-8.55 59.84 C-5.85 67.25, -3.16 74.66, 0 83.33" stroke="#1e1e1e" stroke-width="2" fill="none"></path></g><g transform="translate(2755.2777777777774 117.4444444444444) rotate(0 0 41.666666666666686)"><path d="M8.55 59.84 C6.49 65.49, 4.44 71.14, 0 83.33 M8.55 59.84 C5.85 67.25, 3.16 74.66, 0 83.33" stroke="#1e1e1e" stroke-width="2" fill="none"></path></g></g><mask></mask></svg>